<?xml version="1.0" encoding="UTF-8"?>
<!DOCTYPE svg PUBLIC "-//W3C//DTD SVG 1.1//EN" "http://www.w3.org/Graphics/SVG/1.1/DTD/svg11.dtd">
<!-- Creator: CorelDRAW 2018 (64-Bit) -->
<svg xmlns="http://www.w3.org/2000/svg" xml:space="preserve" width="84.6666mm" height="84.6666mm" version="1.1" style="shape-rendering:geometricPrecision; text-rendering:geometricPrecision; image-rendering:optimizeQuality; fill-rule:evenodd; clip-rule:evenodd"
viewBox="0 0 8466.66 8466.66"
 xmlns:xlink="http://www.w3.org/1999/xlink">
 <defs>
  <style type="text/css">
   <![CDATA[
    .fil0 {fill:#9E9C99}
   ]]>
  </style>
 </defs>
 <g id="_1">
  <metadata id="CorelCorpID_0Corel-Layer"/>
  <path class="fil0" d="M3426.66 6252.57c0,-22.26 3.88,-44.49 11.99,-66.36 36.69,-95.95 143.94,-143.93 239.89,-107.6 160.87,61.42 333.38,92.43 512.94,92.43 205.32,0 408.17,-42.33 586.32,-122.73 93.84,-42.33 203.55,-0.74 245.88,92.78 42.34,93.84 0.36,203.52 -93.13,245.89 -225.78,101.91 -481.54,155.57 -739.07,155.57 -224.72,0 -441.68,-39.19 -645.23,-116.45 -74.08,-28.22 -119.59,-98.78 -119.59,-173.53z"/>
  <path class="fil0" d="M2873.86 6930.6c0,-40.22 13.05,-80.44 39.86,-114.66 63.5,-80.78 180.27,-94.54 260.71,-31.04 219.07,172.15 632.53,279.01 1079.5,279.01 419.84,0 820.91,-97.68 1047.04,-255.37 83.96,-58.57 200.03,-37.75 258.59,46.21 58.56,84.31 37.74,200.02 -46.22,258.9 -289.27,201.44 -760.23,321.77 -1259.41,321.77 -534.11,0 -1023.41,-134.05 -1309.16,-358.46 -46.57,-36.68 -70.91,-91.33 -70.91,-146.36z"/>
  <path class="fil0" d="M6023.78 4662.31c-208.99,-468.49 -226.94,-975.11 -226.94,-975.11 -43.4,-447.68 -125.88,-823.38 -230.65,-1138.77 -498.83,-1497.4 -2166.83,-1497.4 -2665.59,0 -104.99,315.39 -187.32,691.09 -230.86,1138.77 0,0 -17.85,506.62 -226.83,975.11 -70.28,157.31 10.83,363.72 141.81,363.72l3297.14 0c131.19,0 212.09,-206.41 141.92,-363.72z"/>
  <path class="fil0" d="M4235.17 1031.25l0 0c-129.26,0 -235.23,91.23 -235.23,202.67l0 302.22c0,111.48 105.97,202.85 235.23,202.85 129.29,0 234.81,-91.37 234.81,-202.85l0 -302.22c0,-111.44 -105.52,-202.67 -234.81,-202.67z"/>
  <path class="fil0" d="M4232.92 5480.45c225.84,0 410.1,-184.46 410.1,-410.66 0,-226.17 -184.26,-410.64 -410.1,-410.64 -225.89,0 -410.11,184.47 -410.11,410.64 0,226.2 184.22,410.66 410.11,410.66z"/>
 </g>
</svg>
