<?xml version="1.0" encoding="UTF-8"?>
<!DOCTYPE svg PUBLIC "-//W3C//DTD SVG 1.1//EN" "http://www.w3.org/Graphics/SVG/1.1/DTD/svg11.dtd">
<!-- Creator: CorelDRAW 2018 (64-Bit) -->
<svg xmlns="http://www.w3.org/2000/svg" xml:space="preserve" width="84.6666mm" height="84.6666mm" version="1.1" style="shape-rendering:geometricPrecision; text-rendering:geometricPrecision; image-rendering:optimizeQuality; fill-rule:evenodd; clip-rule:evenodd"
viewBox="0 0 8466.66 8466.66"
 xmlns:xlink="http://www.w3.org/1999/xlink">
 <defs>
  <style type="text/css">
   <![CDATA[
    .fil0 {fill:#9E9C99}
   ]]>
  </style>
 </defs>
 <g id="Слой_x0020_1">
  <metadata id="CorelCorpID_0Corel-Layer"/>
  <g id="_1617994103088">
   <path class="fil0" d="M3304.59 3082.77l1792.01 0c551.25,0 1002.28,450.99 1002.28,1002.24 0,551.29 -451.03,1002.32 -1002.28,1002.32l-1792.01 0c-551.25,0 -1002.27,-451.03 -1002.27,-1002.32 0,-551.25 451.02,-1002.24 1002.27,-1002.24zm269.96 190.67l1231.48 0c499.53,0 908.19,408.69 908.19,908.22l0 0.04c0,79.06 -10.23,155.82 -29.45,229.09l-2988.98 0c-19.2,-73.27 -29.46,-150.03 -29.46,-229.09l0 -0.04c0,-499.53 408.66,-908.22 908.22,-908.22z"/>
   <path class="fil0" d="M2335.04 4498.19l3796.56 0c432.01,0 785.53,353.48 785.53,785.49l0 0.04c0,246.73 -115.33,467.78 -294.69,612.06l0 496.09c0,286.05 -227.33,520.08 -505.18,520.08l-0.03 0c-277.81,0 -505.14,-234.03 -505.14,-520.08l0 -322.66 -2756.02 0 0 335.22c0,284.24 -227.33,516.78 -505.14,516.78l-0.03 0c-277.85,0 -505.18,-232.54 -505.18,-516.78l0 -507.43c-180.23,-144.25 -296.21,-365.86 -296.21,-613.28l0 -0.04c0,-432.01 353.52,-785.49 785.53,-785.49zm159.47 499.09c250.76,0 486.84,326.07 486.84,511.35 0,185.28 -236.08,159.6 -486.84,159.6 -250.78,0 -454.13,-150.18 -454.13,-335.49 0,-185.28 203.35,-335.46 454.13,-335.46zm3587.93 16.33c-250.78,0 -486.86,326.07 -486.86,511.35 0,185.28 236.08,159.6 486.86,159.6 250.76,0 454.1,-150.18 454.1,-335.49 0,-185.28 -203.34,-335.46 -454.1,-335.46z"/>
   <path class="fil0" d="M2964.95 6069.21l-629.91 0c-137.77,0 -267.53,-36 -380.41,-98.97l0 -451.43c0,-140.05 57.79,-267.25 150.68,-358.99 -41.2,50.5 -64.93,109.66 -64.93,172.92 0,185.31 203.35,335.49 454.13,335.49 211.64,0 412.82,18.28 470.44,-87.4l0 488.38zm-188.26 -942.99c58.84,47.64 106.86,108.15 139.68,177.15 -35.46,-62.98 -83.57,-125.32 -139.68,-177.15z"/>
   <path class="fil0" d="M1796.85 4747.92c-20.78,-19.82 5.82,-43.25 50.77,-82.8 45.05,-39.51 108.47,-95.25 170.18,-165.38 61.73,-70.13 121.7,-154.73 167.99,-254.32 46.35,-99.55 78.99,-214.2 103.47,-293.01 24.48,-78.81 40.81,-121.71 51.26,-149.72 10.44,-27.98 15.06,-40.92 24.59,-59.37 9.59,-18.42 24.16,-42.23 65.58,-74.26 41.41,-32 109.64,-72.11 113.77,1.9 4.16,74.05 -55.88,262.26 -58.07,435.26 -2.22,173.04 53.38,330.9 -25.75,444.08 -79.06,113.17 -292.84,181.71 -433.81,207.75 -140.97,26.07 -209.17,9.7 -229.98,-10.13z"/>
   <path class="fil0" d="M6592.42 4693.7c25.47,-16.83 8.33,-34.08 -4.97,-45.76 -13.26,-11.64 -22.72,-17.78 -59.13,-48.68 -36.47,-30.94 -99.83,-86.68 -161.57,-156.78 -61.7,-70.13 -121.71,-154.73 -167.99,-254.31 -46.39,-99.56 -78.95,-214.21 -103.61,-292.03 -24.63,-77.83 -41.24,-118.82 -53.2,-148.31 -11.96,-29.42 -19.3,-47.34 -27.73,-64.81 -8.47,-17.46 -18.03,-34.5 -23.78,-44.94 -5.75,-10.44 -7.76,-14.29 -42.86,-36.3 -35.14,-21.98 -103.4,-62.09 -107.49,11.92 -4.16,74.01 55.84,262.26 58.07,435.26 2.18,173.04 -53.38,330.9 25.71,444.11 79.06,113.17 292.88,181.68 433.85,207.72 140.97,26.07 209.13,9.73 234.7,-7.09z"/>
   <path class="fil0" d="M1910.95 4094.94l759.57 0c-2.74,28.56 -4.19,57.48 -4.19,86.72l0 0.04c0,79.06 10.26,155.82 29.46,229.09l2988.98 0c19.22,-73.27 29.45,-150.03 29.45,-229.09l0 -0.04c0,-29.24 -1.45,-58.16 -4.19,-86.72l777.33 0c87.63,0 159.35,71.79 159.35,159.49l0 0.07c0,87.77 -71.72,159.56 -159.35,159.56l-4576.41 0c-87.59,0 -159.38,-71.79 -159.38,-159.56l0 -0.07c0,-87.7 71.79,-159.49 159.38,-159.49z"/>
   <path class="fil0" d="M5939.92 1578.47c-109.71,-27.55 -233.85,-37.71 -340.39,6.06 -88.37,36.34 -159.71,100.86 -231.57,161.93 -66.21,56.27 -138.64,112.47 -229.16,114.41 -371.48,0.53 -742.99,1.02 -1114.43,1.51 -191.84,0.29 -383.71,0.53 -575.55,0.81 -76.03,0.11 -154.34,9 -224.83,-24.97 -78.95,-38.07 -141.78,-104.04 -209.55,-158.12 -107.67,-85.83 -216.92,-127.77 -355.67,-118 -161.22,11.36 -317.22,72.14 -439.14,178.65 -31.71,27.69 -5.61,80.22 33.27,80.15 136.91,-0.18 285.79,-56.59 410.67,-0.57 104.46,46.89 203.87,161.89 204.01,276.37 0.18,114.51 -98.92,229.8 -203.27,276.96 -124.71,56.41 -273.72,0.36 -410.6,0.57 -38.94,0.07 -64.91,52.6 -33.12,80.26 88.47,76.79 192.72,128.23 306.17,156.73 106.05,26.6 226.38,37.22 330.41,-2.01 164.54,-61.98 265.86,-246.62 441.68,-278.73 43.5,-7.97 92.99,-1.76 137.09,-1.83 56.16,-0.07 112.33,-0.14 168.45,-0.21 117.34,-0.18 234.6,-0.36 351.9,-0.5 239.15,-0.35 478.33,-0.67 717.44,-0.98 139.07,-0.18 278.1,-0.39 417.13,-0.57 62.16,-0.1 114.05,3.99 169.61,34.54 55.11,30.27 102.03,73.76 149.72,114.12 108.94,92.11 219.18,158.96 366.26,154.41 171.8,-5.32 340.92,-67.27 470.64,-180.55 31.68,-27.69 5.57,-80.19 -33.34,-80.15 -136.84,0.21 -285.79,56.62 -410.63,0.56 -104.46,-46.88 -203.84,-161.85 -204.02,-276.4 -0.17,-114.47 90.1,-229.73 194.46,-276.93 124.7,-56.34 282.53,-0.35 419.41,-0.56 38.95,-0.04 64.91,-52.6 33.13,-80.22 -88.48,-76.84 -192.72,-128.27 -306.18,-156.74z"/>
  </g>
 </g>
</svg>
