<?xml version="1.0" encoding="UTF-8"?>
<!DOCTYPE svg PUBLIC "-//W3C//DTD SVG 1.1//EN" "http://www.w3.org/Graphics/SVG/1.1/DTD/svg11.dtd">
<!-- Creator: CorelDRAW 2018 (64-Bit) -->
<svg xmlns="http://www.w3.org/2000/svg" xml:space="preserve" width="84.6666mm" height="84.6666mm" version="1.1" style="shape-rendering:geometricPrecision; text-rendering:geometricPrecision; image-rendering:optimizeQuality; fill-rule:evenodd; clip-rule:evenodd"
viewBox="0 0 8466.66 8466.66"
 xmlns:xlink="http://www.w3.org/1999/xlink">
 <defs>
  <style type="text/css">
   <![CDATA[
    .fil0 {fill:#9E9C99}
   ]]>
  </style>
 </defs>
 <g id="Слой_x0020_1">
  <metadata id="CorelCorpID_0Corel-Layer"/>
  <g id="_1617994103024">
   <path class="fil0" d="M4743.3 1959.54c1022.69,49.23 1834.97,448.58 1814.29,891.96 -14.82,317.78 -317.89,570.59 -941.82,670.83 -485.54,-454.73 -1348.6,-615.3 -2051.55,-598.6 -235.09,5.58 -362.73,43.3 -555.06,71.7 -112.19,-83.37 -160.25,-210.79 -155.06,-322.21 20.68,-443.38 866.53,-762.92 1889.2,-713.68z"/>
   <path class="fil0" d="M5755.46 4256.17c99.35,-20.94 198.68,-41.87 308.35,-84.3 109.67,-42.43 229.66,-106.35 315.91,-156.6 86.27,-50.25 138.81,-86.81 191.35,-123.38 5.78,67.33 11.55,134.66 -14.9,217.7 -26.44,83.05 -85.12,181.8 -185.84,265.09 -100.73,83.29 -243.5,151.13 -350.78,196.41 -107.28,45.29 -179.08,68.02 -250.87,90.77 16.16,-64.68 32.32,-129.35 30.11,-196.97 -2.2,-67.62 -22.76,-138.16 -43.33,-208.72z"/>
   <ellipse class="fil0" cx="3731.43" cy="3980.52" rx="1882.95" ry="890.76"/>
   <path class="fil0" d="M1877.13 4467.79c71.29,67.62 142.58,135.23 267.89,210.57 125.31,75.34 304.64,158.4 488.75,219.77 184.11,61.37 372.99,101.04 602.3,127.5 229.31,26.46 499.03,39.7 734.95,28.3 235.92,-11.39 438.04,-47.41 623.98,-88.94 185.95,-41.53 355.72,-88.57 499.77,-151.04 144.05,-62.46 262.38,-140.35 346.89,-200.62 84.52,-60.26 135.24,-102.88 185.95,-145.51 14.7,66.15 29.39,132.29 12.12,217.91 -17.27,85.63 -66.51,190.73 -160.59,290.31 -94.07,99.59 -232.97,193.67 -420.39,275.61 -187.41,81.94 -423.33,151.75 -676.16,196.57 -252.82,44.83 -522.54,64.67 -761.4,57.32 -238.86,-7.35 -446.86,-41.89 -635.01,-82.31 -188.15,-40.41 -356.45,-86.7 -509.69,-155.41 -153.24,-68.71 -291.41,-159.85 -397.61,-253.2 -106.2,-93.34 -180.44,-188.89 -208.73,-280.4 -28.3,-91.51 -10.66,-178.97 6.98,-266.43z"/>
   <path class="fil0" d="M1859.49 5093.97c71.29,67.62 142.58,135.23 267.89,210.57 125.31,75.34 304.64,158.4 488.75,219.77 184.11,61.37 372.99,101.04 602.3,127.5 229.31,26.46 499.03,39.7 734.95,28.3 235.92,-11.39 438.04,-47.41 623.98,-88.94 185.95,-41.53 355.72,-88.57 499.77,-151.04 144.05,-62.46 262.38,-140.35 346.89,-200.62 84.52,-60.26 135.24,-102.88 185.95,-145.51 14.7,66.15 29.39,132.29 12.12,217.91 -17.27,85.63 -66.51,190.73 -160.59,290.31 -94.07,99.59 -232.97,193.67 -420.39,275.61 -187.41,81.94 -423.33,151.75 -676.16,196.57 -252.82,44.83 -522.54,64.67 -761.4,57.32 -238.86,-7.35 -446.86,-41.89 -635.01,-82.31 -188.15,-40.41 -356.45,-86.7 -509.69,-155.41 -153.24,-68.71 -291.41,-159.85 -397.61,-253.2 -106.2,-93.34 -180.44,-188.89 -208.73,-280.4 -28.3,-91.51 -10.66,-178.97 6.98,-266.43z"/>
   <path class="fil0" d="M1850.67 5728.97c71.29,67.62 142.58,135.23 267.89,210.57 125.31,75.34 304.64,158.4 488.75,219.77 184.11,61.37 372.99,101.04 602.3,127.5 229.31,26.46 499.03,39.7 734.95,28.3 235.92,-11.39 438.04,-47.41 623.98,-88.94 185.95,-41.53 355.72,-88.57 499.77,-151.04 144.05,-62.46 262.38,-140.35 346.89,-200.62 84.52,-60.26 135.24,-102.88 185.95,-145.51 14.7,66.15 29.39,132.29 12.12,217.91 -17.27,85.63 -66.51,190.73 -160.59,290.31 -94.07,99.59 -232.97,193.67 -420.39,275.61 -187.41,81.94 -423.33,151.75 -676.16,196.57 -252.82,44.83 -522.54,64.67 -761.4,57.32 -238.86,-7.35 -446.86,-41.89 -635.01,-82.31 -188.15,-40.41 -356.45,-86.7 -509.69,-155.41 -153.24,-68.71 -291.41,-159.85 -397.61,-253.2 -106.2,-93.34 -180.44,-188.89 -208.73,-280.4 -28.3,-91.51 -10.66,-178.97 6.98,-266.43z"/>
   <path class="fil0" d="M5781.59 4821.63c90.21,-22 180.4,-43.99 281.73,-87.12 101.34,-43.13 213.81,-107.38 294.27,-157.25 80.47,-49.85 128.95,-85.3 177.43,-120.75 11.74,56.94 23.47,113.87 4.87,186.82 -18.61,72.95 -67.55,161.93 -159.3,241.13 -91.75,79.21 -226.31,148.65 -334.65,197.64 -108.34,49 -190.47,77.55 -272.6,106.11 10.9,-62.18 21.79,-124.38 23.16,-185.48 1.38,-61.09 -6.76,-121.1 -14.91,-181.1z"/>
   <path class="fil0" d="M5684.41 3673.55c116.91,-22.83 233.84,-45.67 354.45,-91.05 120.61,-45.39 244.93,-113.31 334.1,-166.44 89.17,-53.12 143.22,-91.44 197.25,-129.75 9.23,67.12 18.45,134.24 -5.78,218.15 -24.24,83.91 -81.93,184.62 -184.92,271.27 -102.99,86.65 -251.29,159.26 -362.12,203.91 -110.81,44.66 -184.17,61.38 -257.52,78.09 7.34,-76.43 14.67,-152.87 2.09,-216.91 -12.58,-64.02 -45.06,-115.64 -77.55,-167.27z"/>
  </g>
 </g>
</svg>
