<?xml version="1.0" encoding="UTF-8"?>
<!DOCTYPE svg PUBLIC "-//W3C//DTD SVG 1.1//EN" "http://www.w3.org/Graphics/SVG/1.1/DTD/svg11.dtd">
<!-- Creator: CorelDRAW 2018 (64-Bit) -->
<svg xmlns="http://www.w3.org/2000/svg" xml:space="preserve" width="84.6666mm" height="84.6666mm" version="1.1" style="shape-rendering:geometricPrecision; text-rendering:geometricPrecision; image-rendering:optimizeQuality; fill-rule:evenodd; clip-rule:evenodd"
viewBox="0 0 8466.66 8466.66"
 xmlns:xlink="http://www.w3.org/1999/xlink">
 <defs>
  <style type="text/css">
   <![CDATA[
    .fil0 {fill:#9E9C99}
   ]]>
  </style>
 </defs>
 <g id="_1">
  <metadata id="CorelCorpID_0Corel-Layer"/>
  <path class="fil0" d="M2379.26 1846.34l3822.07 911.44c127.84,30.48 246.98,176.74 176.99,287.87l-1192.29 1892.97c-67.1,106.5 -155.57,155.96 -283.14,124.77l-3109.66 -759.46c-127.67,-31.18 -207.51,-160.05 -177.03,-287.9l475.2 -1992.66c30.48,-127.89 160.02,-207.54 287.86,-177.03z"/>
  <path class="fil0" d="M3948.92 4170.47l291.25 154.27c30.69,16.23 42.51,54.65 26.25,85.38l-901.03 1701.37c-16.27,30.73 -54.72,42.55 -85.41,26.28l-291.26 -154.27c-30.72,-16.26 -42.54,-54.68 -26.24,-85.4l900.99 -1701.34c16.27,-30.73 54.72,-42.55 85.45,-26.29z"/>
  <path class="fil0" d="M2460.01 6099.67l0 -366.46c0,-24.63 20.15,-44.73 44.77,-44.73l813.33 0c24.62,0 44.77,20.1 44.77,44.73l0 366.46c0,24.63 -20.15,44.77 -44.77,44.77l-813.33 0c-24.62,0 -44.77,-20.14 -44.77,-44.77z"/>
  <path class="fil0" d="M2098.9 5173.6l371.33 0c23.29,0 42.34,19.05 42.34,42.3l0 1368.63c0,23.25 -19.05,42.3 -42.34,42.3l-371.33 0c-23.25,0 -42.3,-19.05 -42.3,-42.3l0 -1368.63c0,-23.25 19.05,-42.3 42.3,-42.3z"/>
  <path class="fil0" d="M6370.99 3581.26c70.34,18.66 140.76,37.39 210.96,56.02 70.1,18.62 140.19,37.25 210.18,55.84 39.16,10.41 68.3,47.31 64.49,83.54 -11,103.86 -23.92,225.32 -39.19,369.43 -18.49,174.55 -41.21,389.15 -69.85,659.76 -13.34,126.02 -91.9,221.27 -173.21,200.81 -145.38,-36.59 -291.15,-73.24 -437.38,-110.04 -146.44,-36.83 -293.58,-73.9 -441.01,-110.98 -82.97,-20.88 -86.99,-138.39 -15.41,-250.9 153.56,-241.47 275.16,-432.75 373.8,-587.9 81.35,-127.92 149.86,-235.55 208.35,-327.45 20.39,-32.1 68.69,-48.61 108.27,-38.13z"/>
 </g>
</svg>
