<?xml version="1.0" encoding="UTF-8"?>
<!DOCTYPE svg PUBLIC "-//W3C//DTD SVG 1.1//EN" "http://www.w3.org/Graphics/SVG/1.1/DTD/svg11.dtd">
<!-- Creator: CorelDRAW 2018 (64-Bit) -->
<svg xmlns="http://www.w3.org/2000/svg" xml:space="preserve" width="84.6666mm" height="84.6666mm" version="1.1" style="shape-rendering:geometricPrecision; text-rendering:geometricPrecision; image-rendering:optimizeQuality; fill-rule:evenodd; clip-rule:evenodd"
viewBox="0 0 8466.66 8466.66"
 xmlns:xlink="http://www.w3.org/1999/xlink">
 <defs>
  <style type="text/css">
   <![CDATA[
    .fil0 {fill:#9E9C99}
   ]]>
  </style>
 </defs>
 <g id="_1">
  <metadata id="CorelCorpID_0Corel-Layer"/>
  <path class="fil0" d="M2364.77 1432.36l2640.65 -2.93c52.28,-0.07 86.32,58.39 86.29,109.72 -0.67,470.88 -3.99,765.28 0.03,914.68 3.5,130.49 125.59,136.63 201.02,137.02 216.95,1.2 884.87,-0.46 990.35,0.49 26.7,0.21 23.67,11.54 23.67,42.86l-0.28 4198.06c0,112.36 -92.64,205.03 -205,205.03l-3736.73 0c-112.78,0 -205.03,-92.25 -205.03,-205.03l0 -5194.9c0,-112.78 92.28,-204.89 205.03,-205zm658.43 2065.17l2426.44 0c121.64,0 221.16,99.51 221.16,221.15 0,121.64 -99.52,221.19 -221.16,221.19l-2426.44 0c-121.6,0 -221.16,-99.55 -221.16,-221.19 0,-121.64 99.56,-221.15 221.16,-221.15zm-6.17 909.29l2426.41 0c121.67,0 221.19,99.52 221.19,221.2 0,121.63 -99.52,221.15 -221.19,221.15l-2426.41 0c-121.64,0 -221.19,-99.52 -221.19,-221.15 0,-121.68 99.55,-221.2 221.19,-221.2zm1.76 896.11l2426.44 0c121.64,0 221.16,99.51 221.16,221.19 0,121.64 -99.52,221.15 -221.16,221.15l-2426.44 0c-121.6,0 -221.16,-99.51 -221.16,-221.15 0,-121.68 99.56,-221.19 221.16,-221.19z"/>
  <path class="fil0" d="M6278.3 2462.67l-966.79 0c-57.86,0 -105.2,-47.31 -105.2,-105.16l0 -903.61c0,-24.41 236.08,216.36 486.23,449.3 290.83,270.83 613.56,559.47 585.76,559.47z"/>
 </g>
</svg>
