<?xml version="1.0" encoding="UTF-8"?>
<!DOCTYPE svg PUBLIC "-//W3C//DTD SVG 1.1//EN" "http://www.w3.org/Graphics/SVG/1.1/DTD/svg11.dtd">
<!-- Creator: CorelDRAW 2018 (64-Bit) -->
<svg xmlns="http://www.w3.org/2000/svg" xml:space="preserve" width="93.015mm" height="83.029mm" version="1.1" style="shape-rendering:geometricPrecision; text-rendering:geometricPrecision; image-rendering:optimizeQuality; fill-rule:evenodd; clip-rule:evenodd"
viewBox="0 0 9301.5 8302.9"
 xmlns:xlink="http://www.w3.org/1999/xlink">
 <defs>
  <style type="text/css">
   <![CDATA[
    .fil52 {fill:#2B2A29;fill-rule:nonzero}
    .fil51 {fill:#F39235;fill-rule:nonzero}
    .fil50 {fill:#F29035;fill-rule:nonzero}
    .fil49 {fill:#F28E35;fill-rule:nonzero}
    .fil48 {fill:#F28E32;fill-rule:nonzero}
    .fil47 {fill:#F18C32;fill-rule:nonzero}
    .fil46 {fill:#F18A30;fill-rule:nonzero}
    .fil45 {fill:#F18833;fill-rule:nonzero}
    .fil44 {fill:#F08632;fill-rule:nonzero}
    .fil43 {fill:#F08432;fill-rule:nonzero}
    .fil42 {fill:#F08232;fill-rule:nonzero}
    .fil41 {fill:#EF8032;fill-rule:nonzero}
    .fil40 {fill:#EF7D32;fill-rule:nonzero}
    .fil39 {fill:#EF7B33;fill-rule:nonzero}
    .fil38 {fill:#EE7933;fill-rule:nonzero}
    .fil36 {fill:#EE7734;fill-rule:nonzero}
    .fil37 {fill:#EE7732;fill-rule:nonzero}
    .fil35 {fill:#EE7534;fill-rule:nonzero}
    .fil34 {fill:#ED7334;fill-rule:nonzero}
    .fil33 {fill:#ED7034;fill-rule:nonzero}
    .fil32 {fill:#ED6E32;fill-rule:nonzero}
    .fil31 {fill:#EC6C32;fill-rule:nonzero}
    .fil30 {fill:#EC6932;fill-rule:nonzero}
    .fil29 {fill:#EC6832;fill-rule:nonzero}
    .fil28 {fill:#EB6532;fill-rule:nonzero}
    .fil27 {fill:#EB6332;fill-rule:nonzero}
    .fil26 {fill:#EB6032;fill-rule:nonzero}
    .fil25 {fill:#EB5F33;fill-rule:nonzero}
    .fil24 {fill:#EB5F32;fill-rule:nonzero}
    .fil23 {fill:#EA5C33;fill-rule:nonzero}
    .fil22 {fill:#EA5A33;fill-rule:nonzero}
    .fil21 {fill:#EA5733;fill-rule:nonzero}
    .fil20 {fill:#E95533;fill-rule:nonzero}
    .fil19 {fill:#E95333;fill-rule:nonzero}
    .fil18 {fill:#E95032;fill-rule:nonzero}
    .fil17 {fill:#E94E33;fill-rule:nonzero}
    .fil16 {fill:#E94E32;fill-rule:nonzero}
    .fil15 {fill:#E84B32;fill-rule:nonzero}
    .fil13 {fill:#E84933;fill-rule:nonzero}
    .fil14 {fill:#E84932;fill-rule:nonzero}
    .fil12 {fill:#E84633;fill-rule:nonzero}
    .fil11 {fill:#E84532;fill-rule:nonzero}
    .fil9 {fill:#E74234;fill-rule:nonzero}
    .fil10 {fill:#E74232;fill-rule:nonzero}
    .fil8 {fill:#E74034;fill-rule:nonzero}
    .fil7 {fill:#E73D33;fill-rule:nonzero}
    .fil6 {fill:#E63A34;fill-rule:nonzero}
    .fil5 {fill:#E63834;fill-rule:nonzero}
    .fil4 {fill:#E63534;fill-rule:nonzero}
    .fil3 {fill:#E63333;fill-rule:nonzero}
    .fil2 {fill:#E53033;fill-rule:nonzero}
    .fil1 {fill:#E53032;fill-rule:nonzero}
    .fil0 {fill:#E52D32;fill-rule:nonzero}
   ]]>
  </style>
 </defs>
 <g id="Слой_x0020_1">
  <metadata id="CorelCorpID_0Corel-Layer"/>
  <path class="fil0" d="M5830.55 8104.82l0 0c-147.57,-147.32 -147.57,-386.41 0,-533.73l1980.63 -1980.63 -2016.35 -2016.1c-135.66,-135.66 -135.66,-355.65 0,-491.07 276.04,-276.04 723.21,-276.04 999.25,0l2507.16 2482.86 0 24.31 -2514.35 2514.36c-264.14,264.13 -692.21,264.13 -956.34,0z"/>
  <path class="fil1" d="M5830.55 8081.01l0 0c-147.57,-147.57 -147.57,-386.41 0,-533.97l1980.63 -1980.64 -2016.35 -2016.1c-135.66,-135.66 -135.66,-355.4 0,-491.06 276.04,-275.8 723.21,-275.8 999.25,0l2507.16 2483.1 0 24.31 -2514.35 2514.36c-264.14,263.89 -692.21,263.89 -956.34,0z"/>
  <path class="fil1" d="M5830.55 8056.95l0 0c-147.57,-147.32 -147.57,-386.4 0,-533.72l1980.63 -1980.64 -2016.35 -2016.35c-135.66,-135.41 -135.66,-355.4 0,-491.06 276.04,-275.79 723.21,-275.79 999.25,0l2507.16 2483.36 0 24.3 -2514.35 2514.11c-264.14,264.14 -692.21,264.14 -956.34,0z"/>
  <path class="fil1" d="M5830.55 8032.89l0 0c-147.57,-147.32 -147.57,-386.4 0,-533.72l1980.63 -1980.63 -2016.35 -2016.11c-135.66,-135.66 -135.66,-355.4 0,-491.06 276.04,-276.04 723.21,-276.04 999.25,0l2507.16 2483.36 0 24.55 -2514.35 2513.61c-264.14,264.14 -692.21,264.14 -956.34,0z"/>
  <path class="fil2" d="M5830.55 8009.09l0 0c-147.57,-147.57 -147.57,-386.41 0,-533.98l1980.63 -1980.38 -2016.35 -2016.35c-135.66,-135.67 -135.66,-355.41 0,-491.07 276.04,-275.79 723.21,-275.79 999.25,0l2507.16 2483.61 0 24.55 -2514.35 2513.62c-264.14,263.88 -692.21,263.88 -956.34,0z"/>
  <path class="fil3" d="M5830.55 7985.03l0 0c-147.57,-147.32 -147.57,-386.41 0,-533.73l1980.63 -1980.63 -2016.35 -2016.35c-135.66,-135.41 -135.66,-355.4 0,-491.07 276.04,-275.79 723.21,-275.79 999.25,0l2507.16 2483.86 0 24.55 -2514.35 2513.37c-264.14,264.13 -692.21,264.13 -956.34,0z"/>
  <path class="fil3" d="M5830.55 7960.97l0 0c-147.57,-147.32 -147.57,-386.4 0,-533.72l1980.63 -1980.64 -2016.35 -2016.1c-135.66,-135.66 -135.66,-355.4 0,-491.07 276.04,-276.03 723.21,-276.03 999.25,0l2507.16 2484.11 0 24.3 -2514.35 2513.12c-264.14,264.14 -692.21,264.14 -956.34,0z"/>
  <path class="fil3" d="M5830.55 7937.16l0 0c-147.57,-147.57 -147.57,-386.4 0,-533.97l1980.63 -1980.39 -2016.35 -2016.35c-135.66,-135.66 -135.66,-355.4 0,-491.06 276.04,-275.79 723.21,-275.79 999.25,0l2507.16 2484.35 0 24.3 -2514.35 2513.12c-264.14,264.14 -692.21,264.14 -956.34,0z"/>
  <path class="fil3" d="M5830.55 7913.1l0 0c-147.57,-147.32 -147.57,-386.4 0,-533.72l1980.63 -1980.64 -2016.35 -2016.1c-135.66,-135.66 -135.66,-355.65 0,-491.06 276.04,-276.04 723.21,-276.04 999.25,-0.25l2507.16 2484.6 0 24.55 -2514.35 2512.62c-264.14,264.14 -692.21,264.14 -956.34,0z"/>
  <path class="fil3" d="M5830.55 7889.05l0 0c-147.57,-147.32 -147.57,-386.41 0,-533.73l1980.63 -1980.63 -2016.35 -2016.1c-135.66,-135.67 -135.66,-355.41 0,-491.07 276.04,-276.04 723.21,-276.04 999.25,0l2507.16 2484.6 0 24.55 -2514.35 2512.38c-264.14,264.13 -692.21,264.13 -956.34,0z"/>
  <path class="fil4" d="M5830.55 7865.24l0 0c-147.57,-147.57 -147.57,-386.41 0,-533.98l1980.63 -1980.38 -2016.35 -2016.35c-135.66,-135.66 -135.66,-355.4 0,-491.07 276.04,-275.79 723.21,-275.79 999.25,0l2507.16 2484.85 0 24.55 -2514.35 2512.38c-264.14,264.13 -692.21,264.13 -956.34,0z"/>
  <path class="fil4" d="M5830.55 7841.18l0 0c-147.57,-147.32 -147.57,-386.4 0,-533.72l1980.63 -1980.64 -2016.35 -2016.1c-135.66,-135.66 -135.66,-355.65 0,-491.07 276.04,-276.03 723.21,-276.03 999.25,0l2507.16 2484.85 0 24.55 -2514.35 2512.13c-264.14,264.13 -692.21,264.13 -956.34,0z"/>
  <path class="fil4" d="M5830.55 7817.12l0 0c-147.57,-147.32 -147.57,-386.15 0,-533.72l1980.63 -1980.64 -2016.35 -2016.1c-135.66,-135.66 -135.66,-355.4 0,-491.06 276.04,-275.79 723.21,-275.79 999.25,0l2507.16 2485.34 0 24.3 -2514.35 2511.88c-264.14,264.14 -692.21,264.14 -956.34,0z"/>
  <path class="fil4" d="M5830.55 7793.31l0 0c-147.57,-147.56 -147.57,-386.4 0,-533.97l1980.63 -1980.39 -2016.35 -2016.34c-135.66,-135.42 -135.66,-355.41 0,-491.07 276.04,-275.79 723.21,-275.79 999.25,0l2507.16 2485.59 0 24.3 -2514.35 2511.88c-264.14,264.14 -692.21,264.14 -956.34,0z"/>
  <path class="fil5" d="M5830.55 7769.26l0 0c-147.57,-147.32 -147.57,-386.41 0,-533.73l1980.63 -1980.63 -2016.35 -2016.1c-135.66,-135.67 -135.66,-355.65 0,-491.07 276.04,-276.04 723.21,-276.04 999.25,0l2507.16 2485.59 0 24.55 -2514.35 2511.39c-264.14,264.13 -692.21,264.13 -956.34,0z"/>
  <path class="fil5" d="M5830.55 7745.45l0 0c-147.57,-147.57 -147.57,-386.41 0,-533.98l1980.63 -1980.63 -2016.35 -2016.1c-135.66,-135.66 -135.66,-355.4 0,-491.07 276.04,-275.79 723.21,-275.79 999.25,0l2507.16 2485.84 0 24.55 -2514.35 2511.39c-264.14,263.88 -692.21,263.88 -956.34,0z"/>
  <path class="fil5" d="M5830.55 7721.39l0 0c-147.57,-147.32 -147.57,-386.4 0,-533.72l1980.63 -1980.64 -2016.35 -2016.35c-135.66,-135.41 -135.66,-355.4 0,-491.06 276.04,-275.8 723.21,-275.8 999.25,0l2507.16 2486.08 0 24.55 -2514.35 2511.14c-264.14,264.13 -692.21,264.13 -956.34,0z"/>
  <path class="fil5" d="M5830.55 7697.33l0 0c-147.57,-147.32 -147.57,-386.4 0,-533.72l1980.63 -1980.64 -2016.35 -2016.1c-135.66,-135.66 -135.66,-355.65 0,-491.06 276.04,-276.04 723.21,-276.04 999.25,0l2507.16 2486.08 0 24.56 -2514.35 2510.88c-264.14,264.14 -692.21,264.14 -956.34,0z"/>
  <path class="fil6" d="M5830.55 7673.52l0 0c-147.57,-147.56 -147.57,-386.4 0,-533.97l1980.63 -1980.63 -2016.35 -2016.1c-135.66,-135.67 -135.66,-355.41 0,-491.07 276.04,-275.79 723.21,-275.79 999.25,0l2507.16 2486.58 0 24.31 -2514.35 2510.88c-264.14,263.89 -692.21,263.89 -956.34,0z"/>
  <path class="fil6" d="M5830.55 7649.47l0 0c-147.57,-147.32 -147.57,-386.41 0,-533.73l1980.63 -1980.63 -2016.35 -2016.35c-135.66,-135.42 -135.66,-355.4 0,-491.07 276.04,-275.79 723.21,-275.79 999.25,0l2507.16 2486.83 0 24.55 -2514.35 2510.4c-264.14,264.13 -692.21,264.13 -956.34,0z"/>
  <path class="fil7" d="M5830.55 7625.41l0 0c-147.57,-147.32 -147.57,-386.41 0,-533.73l1980.63 -1980.63 -2016.35 -2016.1c-135.66,-135.66 -135.66,-355.65 0,-491.07 276.04,-276.04 723.21,-276.04 999.25,0l2507.16 2486.83 0 24.56 -2514.35 2510.14c-264.14,264.13 -692.21,264.13 -956.34,0z"/>
  <path class="fil7" d="M5830.55 7601.6l0 0c-147.57,-147.57 -147.57,-386.41 0,-533.97l1980.63 -1980.39 -2016.35 -2016.35c-135.66,-135.66 -135.66,-355.4 0,-491.06 276.04,-275.8 723.21,-275.8 999.25,0l2507.16 2487.07 0 24.56 -2514.35 2510.14c-264.14,263.89 -692.21,263.89 -956.34,0z"/>
  <path class="fil7" d="M5830.55 7577.54l0 0c-147.57,-147.32 -147.57,-386.4 0,-533.72l1980.63 -1980.64 -2016.35 -2016.35c-135.66,-135.41 -135.66,-355.4 0,-491.06 276.04,-275.79 723.21,-275.79 999.25,0l2507.16 2487.32 0 24.56 -2514.35 2509.89c-264.14,264.14 -692.21,264.14 -956.34,0z"/>
  <path class="fil7" d="M5830.55 7553.48l0 0c-147.57,-147.32 -147.57,-386.4 0,-533.72l1980.63 -1980.63 -2016.35 -2016.1c-135.66,-135.67 -135.66,-355.41 0,-491.07 276.04,-276.04 723.21,-276.04 999.25,0l2507.16 2487.57 0 24.31 -2514.35 2509.64c-264.14,264.14 -692.21,264.14 -956.34,0z"/>
  <path class="fil8" d="M5830.55 7529.68l0 0c-147.57,-147.57 -147.57,-386.41 0,-533.98l1980.63 -1980.38 -2016.35 -2016.35c-135.66,-135.67 -135.66,-355.41 0,-491.07 276.04,-275.79 723.21,-275.79 999.25,0l2507.16 2487.82 0 24.31 -2514.35 2509.65c-264.14,263.88 -692.21,263.88 -956.34,0z"/>
  <path class="fil8" d="M5830.55 7505.62l0 0c-147.57,-147.32 -147.57,-386.41 0,-533.73l1980.63 -1980.63 -2016.35 -2016.1c-135.66,-135.66 -135.66,-355.65 0,-491.07 276.04,-276.04 723.21,-276.04 999.25,-0.25l2507.16 2488.07 0 24.56 -2514.35 2509.15c-264.14,264.13 -692.21,264.13 -956.34,0z"/>
  <path class="fil9" d="M5830.55 7481.56l0 0c-147.57,-147.32 -147.57,-386.16 0,-533.72l1980.63 -1980.64 -2016.35 -2016.1c-135.66,-135.66 -135.66,-355.4 0,-491.07 276.04,-276.03 723.21,-276.03 999.25,0l2507.16 2488.07 0 24.56 -2514.35 2508.9c-264.14,264.14 -692.21,264.14 -956.34,0z"/>
  <path class="fil9" d="M5830.55 7457.75l0 0c-147.57,-147.57 -147.57,-386.4 0,-533.97l1980.63 -1980.39 -2016.35 -2016.35c-135.66,-135.66 -135.66,-355.4 0,-491.06 276.04,-275.79 723.21,-275.79 999.25,0l2507.16 2488.32 0 24.55 -2514.35 2508.9c-264.14,264.14 -692.21,264.14 -956.34,0z"/>
  <path class="fil9" d="M5830.55 7433.69l0 0c-147.57,-147.32 -147.57,-386.4 0,-533.72l1980.63 -1980.63 -2016.35 -2016.11c-135.66,-135.66 -135.66,-355.65 0,-491.06 276.04,-276.04 723.21,-276.04 999.25,0l2507.16 2488.32 0 24.55 -2514.35 2508.65c-264.14,264.14 -692.21,264.14 -956.34,0z"/>
  <path class="fil9" d="M5830.55 7409.64l0 0c-147.57,-147.32 -147.57,-386.16 0,-533.73l1980.63 -1980.63 -2016.35 -2016.1c-135.66,-135.67 -135.66,-355.41 0,-491.07 276.04,-275.79 723.21,-276.04 999.25,0l2507.16 2488.81 0 24.31 -2514.35 2508.41c-264.14,264.13 -692.21,264.13 -956.34,0z"/>
  <path class="fil10" d="M5830.55 7385.83l0 0c-147.57,-147.32 -147.57,-386.41 0,-533.73l1980.63 -1980.63 -2016.35 -2016.35c-135.66,-135.42 -135.66,-355.4 0,-491.07 276.04,-275.79 723.21,-275.79 999.25,0l2507.16 2489.07 0 24.55 -2514.35 2508.16c-264.14,264.13 -692.21,264.13 -956.34,0z"/>
  <path class="fil11" d="M5830.55 7361.77l0 0c-147.57,-147.32 -147.57,-386.4 0,-533.72l1980.63 -1980.64 -2016.35 -2016.1c-135.66,-135.66 -135.66,-355.65 0,-491.07 276.04,-276.03 723.21,-276.03 999.25,0l2507.16 2489.07 0 24.55 -2514.35 2507.91c-264.14,264.13 -692.21,264.13 -956.34,0z"/>
  <path class="fil11" d="M5830.55 7337.96l0 0c-147.57,-147.57 -147.57,-386.4 0,-533.97l1980.63 -1980.64 -2016.35 -2016.1c-135.66,-135.66 -135.66,-355.4 0,-491.06 276.04,-275.79 723.21,-275.79 999.25,0l2507.16 2489.31 0 24.55 -2514.35 2507.91c-264.14,263.89 -692.21,263.89 -956.34,0z"/>
  <path class="fil11" d="M5830.55 7313.9l0 0c-147.57,-147.32 -147.57,-386.4 0,-533.72l1980.63 -1980.64 -2016.35 -2016.34c-135.66,-135.42 -135.66,-355.41 0,-491.07 276.04,-275.79 723.21,-275.79 999.25,0l2507.16 2489.56 0 24.55 -2514.35 2507.66c-264.14,264.14 -692.21,264.14 -956.34,0z"/>
  <path class="fil12" d="M5830.55 7289.85l0 0c-147.57,-147.32 -147.57,-386.41 0,-533.73l1980.63 -1980.63 -2016.35 -2016.1c-135.66,-135.67 -135.66,-355.65 0,-491.07 276.04,-276.04 723.21,-276.04 999.25,0l2507.16 2489.81 0 24.3 -2514.35 2507.42c-264.14,264.13 -692.21,264.13 -956.34,0z"/>
  <path class="fil12" d="M5830.55 7266.04l0 0c-147.57,-147.57 -147.57,-386.41 0,-533.98l1980.63 -1980.63 -2016.35 -2016.1c-135.66,-135.66 -135.66,-355.4 0,-491.07 276.04,-275.79 723.21,-275.79 999.25,0l2507.16 2490.06 0 24.55 -2514.35 2507.17c-264.14,263.88 -692.21,263.88 -956.34,0z"/>
  <path class="fil13" d="M5830.55 7241.98l0 0c-147.57,-147.32 -147.57,-386.4 0,-533.72l1980.63 -1980.64 -2016.35 -2016.35c-135.66,-135.41 -135.66,-355.4 0,-491.06 276.04,-275.79 723.21,-275.79 999.25,0l2507.16 2490.3 0 24.55 -2514.35 2506.92c-264.14,264.13 -692.21,264.13 -956.34,0z"/>
  <path class="fil13" d="M5830.55 7217.92l0 0c-147.57,-147.32 -147.57,-386.4 0,-533.72l1980.63 -1980.64 -2016.35 -2016.1c-135.66,-135.66 -135.66,-355.4 0,-491.06 276.04,-276.04 723.21,-276.04 999.25,0l2507.16 2490.3 0 24.55 -2514.35 2506.67c-264.14,264.14 -692.21,264.14 -956.34,0z"/>
  <path class="fil14" d="M5830.55 7194.11l0 0c-147.57,-147.56 -147.57,-386.4 0,-533.97l1980.63 -1980.39 -2016.35 -2016.34c-135.66,-135.67 -135.66,-355.41 0,-491.07 276.04,-275.79 723.21,-275.79 999.25,0l2507.16 2490.55 0 24.55 -2514.35 2506.67c-264.14,263.89 -692.21,263.89 -956.34,0z"/>
  <path class="fil14" d="M5830.55 7170.06l0 0c-147.57,-147.32 -147.57,-386.41 0,-533.73l1980.63 -1980.63 -2016.35 -2016.1c-135.66,-135.67 -135.66,-355.65 0,-491.32 276.04,-275.79 723.21,-275.79 999.25,0l2507.16 2490.8 0 24.55 -2514.35 2506.43c-264.14,264.13 -692.21,264.13 -956.34,0z"/>
  <path class="fil15" d="M5830.55 7146l0 0c-147.57,-147.32 -147.57,-386.41 0,-533.73l1980.63 -1980.63 -2016.35 -2016.1c-135.66,-135.66 -135.66,-355.4 0,-491.07 276.04,-276.04 723.21,-276.04 999.25,0l2507.16 2491.05 0 24.3 -2514.35 2506.18c-264.14,264.13 -692.21,264.13 -956.34,0z"/>
  <path class="fil15" d="M5830.55 7122.19l0 0c-147.57,-147.57 -147.57,-386.41 0,-533.97l1980.63 -1980.39 -2016.35 -2016.35c-135.66,-135.66 -135.66,-355.4 0,-491.06 276.04,-275.8 723.21,-275.8 999.25,0l2507.16 2491.29 0 24.55 -2514.35 2505.93c-264.14,264.13 -692.21,264.13 -956.34,0z"/>
  <path class="fil15" d="M5830.55 7098.13l0 0c-147.57,-147.32 -147.57,-386.4 0,-533.72l1980.63 -1980.64 -2016.35 -2016.1c-135.66,-135.66 -135.66,-355.65 0,-491.06 276.04,-276.04 723.21,-276.04 999.25,-0.25l2507.16 2491.54 0 24.55 -2514.35 2505.68c-264.14,264.14 -692.21,264.14 -956.34,0z"/>
  <path class="fil16" d="M5830.55 7074.08l0 0c-147.57,-147.32 -147.57,-386.41 0,-533.73l1980.63 -1980.63 -2016.35 -2016.1c-135.66,-135.67 -135.66,-355.41 0,-491.07 276.04,-276.04 723.21,-276.04 999.25,0l2507.16 2491.54 0 24.55 -2514.35 2505.44c-264.14,264.13 -692.21,264.13 -956.34,0z"/>
  <path class="fil17" d="M5830.55 7050.27l0 0c-147.57,-147.57 -147.57,-386.41 0,-533.73l1980.63 -1980.63 -2016.35 -2016.35c-135.66,-135.42 -135.66,-355.41 0,-491.07 276.04,-275.79 723.21,-275.79 999.25,0l2507.16 2491.79 0 24.55 -2514.35 2505.44c-264.14,264.13 -692.21,264.13 -956.34,0z"/>
  <path class="fil16" d="M5830.55 7026.21l0 0c-147.57,-147.32 -147.57,-386.41 0,-533.73l1980.63 -1980.63 -2016.35 -2016.1c-135.66,-135.66 -135.66,-355.65 0,-491.07 276.04,-276.04 723.21,-276.04 999.25,0l2507.16 2491.79 0 24.56 -2514.35 2505.18c-264.14,264.13 -692.21,264.13 -956.34,0z"/>
  <path class="fil18" d="M5830.55 7002.15l0 0c-147.57,-147.32 -147.57,-386.16 0,-533.72l1980.63 -1980.64 -2016.35 -2016.1c-135.66,-135.66 -135.66,-355.4 0,-491.07 276.04,-275.79 723.21,-275.79 999.25,0l2507.16 2492.29 0 24.31 -2514.35 2505.18c-264.14,263.89 -692.21,263.89 -956.34,-0.25z"/>
  <path class="fil18" d="M5830.55 6978.34l0 0c-147.57,-147.32 -147.57,-386.4 0,-533.72l1980.63 -1980.64 -2016.35 -2016.35c-135.66,-135.41 -135.66,-355.4 0,-491.06 276.04,-275.79 723.21,-275.79 999.25,0l2507.16 2492.53 0 24.56 -2514.35 2504.68c-264.14,264.14 -692.21,264.14 -956.34,0z"/>
  <path class="fil19" d="M5830.55 6954.28l0 0c-147.57,-147.32 -147.57,-386.4 0,-533.72l1980.63 -1980.63 -2016.35 -2016.11c-135.66,-135.66 -135.66,-355.65 0,-491.06 276.04,-276.04 723.21,-276.04 999.25,0l2507.16 2492.53 0 24.56 -2514.35 2504.43c-264.14,264.14 -692.21,264.14 -956.34,0z"/>
  <path class="fil19" d="M5830.55 6930.48l0 0c-147.57,-147.57 -147.57,-386.41 0,-533.98l1980.63 -1980.63 -2016.35 -2016.1c-135.66,-135.67 -135.66,-355.41 0,-491.07 276.04,-275.79 723.21,-275.79 999.25,0l2507.16 2492.78 0 24.56 -2514.35 2504.44c-264.14,263.88 -692.21,263.88 -956.34,0z"/>
  <path class="fil20" d="M5830.55 6906.42l0 0c-147.57,-147.32 -147.57,-386.41 0,-533.73l1980.63 -1980.63 -2016.35 -2016.35c-135.66,-135.42 -135.66,-355.4 0,-491.07 276.04,-275.79 723.21,-275.79 999.25,0l2507.16 2493.03 0 24.56 -2514.35 2504.19c-264.14,264.13 -692.21,264.13 -956.34,0z"/>
  <path class="fil20" d="M5830.55 6882.36l0 0c-147.57,-147.32 -147.57,-386.4 0,-533.72l1980.63 -1980.64 -2016.35 -2016.1c-135.66,-135.66 -135.66,-355.4 0,-491.07 276.04,-276.03 723.21,-276.03 999.25,0l2507.16 2493.03 0 24.56 -2514.35 2503.94c-264.14,264.13 -692.21,264.13 -956.34,0z"/>
  <path class="fil20" d="M5830.55 6858.55l0 0c-147.57,-147.57 -147.57,-386.4 0,-533.97l1980.63 -1980.64 -2016.35 -2016.1c-135.66,-135.66 -135.66,-355.4 0,-491.06 276.04,-275.79 723.21,-275.79 999.25,0l2507.16 2493.52 0 24.56 -2514.35 2503.69c-264.14,263.89 -692.21,263.89 -956.34,0z"/>
  <path class="fil21" d="M5830.55 6834.49l0 0c-147.57,-147.32 -147.57,-386.4 0,-533.72l1980.63 -1980.64 -2016.35 -2016.34c-135.66,-135.42 -135.66,-355.41 0,-491.07 276.04,-275.79 723.21,-275.79 999.25,0l2507.16 2493.77 0 24.56 -2514.35 2503.44c-264.14,264.14 -692.21,264.14 -956.34,0z"/>
  <path class="fil21" d="M5830.55 6810.44l0 0c-147.57,-147.32 -147.57,-386.41 0,-533.73l1980.63 -1980.63 -2016.35 -2016.1c-135.66,-135.67 -135.66,-355.41 0,-491.07 276.04,-276.04 723.21,-276.04 999.25,0l2507.16 2493.77 0 24.56 -2514.35 2503.2c-264.14,264.13 -692.21,264.13 -956.34,0z"/>
  <path class="fil21" d="M5830.55 6786.63l0 0c-147.57,-147.57 -147.57,-386.41 0,-533.98l1980.63 -1980.38 -2016.35 -2016.35c-135.66,-135.66 -135.66,-355.4 0,-491.07 276.04,-275.79 723.21,-275.79 999.25,0l2507.16 2494.03 0 24.55 -2514.35 2503.2c-264.14,264.13 -692.21,263.88 -956.34,0z"/>
  <path class="fil21" d="M5830.55 6762.57l0 0c-147.57,-147.32 -147.57,-386.4 0,-533.72l1980.63 -1980.64 -2016.35 -2016.1c-135.66,-135.66 -135.66,-355.65 0,-491.07 276.04,-276.03 723.21,-276.03 999.25,-0.24l2507.16 2494.27 0 24.55 -2514.35 2502.95c-264.14,264.13 -692.21,264.13 -956.34,0z"/>
  <path class="fil22" d="M5830.55 6738.51l0 0c-147.57,-147.32 -147.57,-386.4 0,-533.72l1980.63 -1980.64 -2016.35 -2016.1c-135.66,-135.66 -135.66,-355.4 0,-491.06 276.04,-276.04 723.21,-276.04 999.25,0l2507.16 2494.52 0 24.3 -2514.35 2502.7c-264.14,264.14 -692.21,264.14 -956.34,0z"/>
  <path class="fil22" d="M5830.55 6714.7l0 0c-147.57,-147.56 -147.57,-386.4 0,-533.97l1980.63 -1980.39 -2016.35 -2016.34c-135.66,-135.67 -135.66,-355.41 0,-491.07 276.04,-275.79 723.21,-275.79 999.25,0l2507.16 2494.77 0 24.55 -2514.35 2502.45c-264.14,264.14 -692.21,264.14 -956.34,0z"/>
  <path class="fil22" d="M5830.55 6690.65l0 0c-147.57,-147.32 -147.57,-386.41 0,-533.73l1980.63 -1980.63 -2016.35 -2016.1c-135.66,-135.67 -135.66,-355.65 0,-491.07 276.04,-276.04 723.21,-276.04 999.25,0l2507.16 2494.77 0 24.55 -2514.35 2502.21c-264.14,264.13 -692.21,264.13 -956.34,0z"/>
  <path class="fil22" d="M5830.55 6666.59l0 0c-147.57,-147.32 -147.57,-386.16 0,-533.73l1980.63 -1980.63 -2016.35 -2016.1c-135.66,-135.66 -135.66,-355.4 0,-491.07 276.04,-275.79 723.21,-275.79 999.25,0l2507.16 2495.02 0 24.55 -2514.35 2501.96c-264.14,264.13 -692.21,264.13 -956.34,0z"/>
  <path class="fil23" d="M5830.55 6642.78l0 0c-147.57,-147.57 -147.57,-386.4 0,-533.97l1980.63 -1980.39 -2016.35 -2016.35c-135.66,-135.66 -135.66,-355.4 0,-491.06 276.04,-275.8 723.21,-275.8 999.25,0l2507.16 2495.26 0 24.55 -2514.35 2501.96c-264.14,264.13 -692.21,264.13 -956.34,0z"/>
  <path class="fil23" d="M5830.55 6618.72l0 0c-147.57,-147.32 -147.57,-386.4 0,-533.72l1980.63 -1980.64 -2016.35 -2016.1c-135.66,-135.66 -135.66,-355.65 0,-491.06 276.04,-276.04 723.21,-276.04 999.25,0l2507.16 2495.26 0.25 24.55 -2514.6 2501.71c-264.14,264.14 -692.21,264.14 -956.34,0z"/>
  <path class="fil24" d="M5830.55 6594.67l0 0c-147.57,-147.32 -147.57,-386.16 0,-533.73l1980.63 -1980.63 -2016.35 -2016.1c-135.66,-135.67 -135.66,-355.41 0,-491.07 276.04,-275.79 723.21,-275.79 999.25,0l2507.16 2495.76 0.25 24.55 -2514.6 2501.46c-264.14,263.89 -692.21,263.89 -956.34,-0.24z"/>
  <path class="fil25" d="M5830.55 6570.86l0 0c-147.57,-147.32 -147.57,-386.41 0,-533.73l1980.63 -1980.63 -2016.35 -2016.35c-135.66,-135.42 -135.66,-355.4 0,-491.07 276.04,-275.79 723.21,-275.79 999.25,0l2507.16 2496.01 0.25 24.55 -2514.6 2501.22c-264.14,264.13 -692.21,264.13 -956.34,0z"/>
  <path class="fil26" d="M5830.55 6546.8l0 0c-147.57,-147.32 -147.57,-386.41 0,-533.73l1980.63 -1980.63 -2016.35 -2016.1c-135.66,-135.66 -135.66,-355.65 0,-491.07 276.04,-276.04 723.21,-276.04 999.25,0l2507.16 2496.01 0.25 24.55 -2514.6 2500.97c-264.14,264.13 -692.21,264.13 -956.34,0z"/>
  <path class="fil26" d="M5830.55 6522.99l0 0c-147.57,-147.57 -147.57,-386.41 0,-533.97l1980.63 -1980.64 -2016.35 -2016.1c-135.66,-135.66 -135.66,-355.4 0,-491.06 276.04,-275.8 723.21,-275.8 999.25,0l2507.16 2496.25 0.25 24.55 -2514.6 2500.97c-264.14,263.89 -692.21,263.89 -956.34,0z"/>
  <path class="fil27" d="M5830.55 6498.93l0 0c-147.57,-147.32 -147.57,-386.4 0,-533.72l1980.63 -1980.64 -2016.35 -2016.35c-135.66,-135.41 -135.66,-355.4 0,-491.06 276.04,-275.79 723.21,-275.79 999.25,0l2507.16 2496.5 0.25 24.55 -2514.6 2500.72c-264.14,264.14 -692.21,264.14 -956.34,0z"/>
  <path class="fil27" d="M5830.55 6474.87l0 0c-147.57,-147.32 -147.57,-386.4 0,-533.72l1980.63 -1980.63 -2016.35 -2016.1c-135.66,-135.67 -135.66,-355.66 0,-491.07 276.04,-276.04 723.21,-276.04 999.25,0l2507.16 2496.5 0.25 24.8 -2514.6 2500.22c-264.14,264.14 -692.21,264.14 -956.34,0z"/>
  <path class="fil27" d="M5830.55 6451.07l0 0c-147.57,-147.57 -147.57,-386.41 0,-533.98l1980.63 -1980.38 -2016.35 -2016.35c-135.66,-135.67 -135.66,-355.41 0,-491.07 276.04,-275.79 723.21,-275.79 999.25,0l2507.16 2497 0.25 24.55 -2514.6 2500.23c-264.14,263.88 -692.21,263.88 -956.34,0z"/>
  <path class="fil27" d="M5830.55 6427.01l0 0c-147.57,-147.32 -147.57,-386.41 0,-533.73l1980.63 -1980.63 -2016.35 -2016.35c-135.66,-135.41 -135.66,-355.4 0,-491.07 276.04,-275.79 723.21,-275.79 999.25,0l2507.16 2497.25 0.25 24.55 -2514.6 2499.98c-264.14,264.13 -692.21,264.13 -956.34,0z"/>
  <path class="fil28" d="M5830.55 6402.95l0 0c-147.57,-147.32 -147.57,-386.4 0,-533.72l1980.63 -1980.64 -2016.35 -2016.1c-135.66,-135.66 -135.66,-355.4 0,-491.07 276.04,-276.03 723.21,-276.03 999.25,0l2507.16 2497.25 0.25 24.55 -2514.6 2499.73c-264.14,264.14 -692.21,264.14 -956.34,0z"/>
  <path class="fil28" d="M5830.55 6379.14l0 0c-147.57,-147.57 -147.57,-386.4 0,-533.97l1980.63 -1980.39 -2016.35 -2016.35c-135.66,-135.66 -135.66,-355.4 0,-491.06 276.04,-275.79 723.21,-275.79 999.25,0l2507.16 2497.49 0.25 24.56 -2514.6 2499.72c-264.14,263.89 -692.21,263.89 -956.34,0z"/>
  <path class="fil29" d="M5830.55 6355.08l0 0c-147.57,-147.32 -147.57,-386.4 0,-533.72l1980.63 -1980.63 -2016.35 -2016.11c-135.66,-135.66 -135.66,-355.65 0,-491.31 276.04,-275.79 723.21,-275.79 999.25,0l2507.16 2497.74 0.25 24.56 -2514.6 2499.47c-264.14,264.14 -692.21,264.14 -956.34,0z"/>
  <path class="fil29" d="M5830.55 6331.03l0 0c-147.57,-147.32 -147.57,-386.16 0,-533.73l1980.63 -1980.63 -2016.35 -2016.1c-135.66,-135.67 -135.66,-355.41 0,-491.07 276.04,-276.04 723.21,-276.04 999.25,0l2507.16 2497.74 0.25 24.8 -2514.6 2498.99c-264.14,264.13 -692.21,264.13 -956.34,0z"/>
  <path class="fil30" d="M5830.55 6307.22l0 0c-147.57,-147.57 -147.57,-386.41 0,-533.97l1980.63 -1980.39 -2016.35 -2016.35c-135.66,-135.66 -135.66,-355.4 0,-491.07 276.04,-275.79 723.21,-275.79 999.25,0l2507.16 2498.24 0.25 24.56 -2514.6 2498.98c-264.14,264.13 -692.21,264.13 -956.34,0z"/>
  <path class="fil30" d="M5830.55 6283.16l0 0c-147.57,-147.32 -147.57,-386.4 0,-533.72l1980.63 -1980.64 -2016.35 -2016.1c-135.66,-135.66 -135.66,-355.65 0,-491.07 276.04,-276.03 723.21,-276.03 999.25,0l2507.16 2498.24 0.25 24.56 -2514.6 2498.73c-264.14,264.13 -692.21,264.13 -956.34,0z"/>
  <path class="fil30" d="M5830.55 6259.1l0 0c-147.57,-147.32 -147.57,-386.15 0,-533.72l1980.63 -1980.64 -2016.35 -2016.1c-135.66,-135.66 -135.66,-355.4 0,-491.06 276.04,-275.79 723.21,-276.04 999.25,0l2507.16 2498.48 0.25 24.56 -2514.6 2498.48c-264.14,264.14 -692.21,264.14 -956.34,0z"/>
  <path class="fil31" d="M5830.55 6235.29l0 0c-147.57,-147.56 -147.57,-386.4 0,-533.72l1980.63 -1980.64 -2016.35 -2016.34c-135.66,-135.42 -135.66,-355.41 0,-491.07 276.04,-275.79 723.21,-275.79 999.25,0l2507.16 2498.73 0.25 24.56 -2514.6 2498.48c-264.14,264.14 -692.21,264.14 -956.34,0z"/>
  <path class="fil31" d="M5830.55 6211.24l0 0c-147.57,-147.32 -147.57,-386.41 0,-533.73l1980.63 -1980.63 -2016.35 -2016.1c-135.66,-135.67 -135.66,-355.65 0,-491.07 276.04,-276.04 723.21,-276.04 999.25,0l2507.16 2498.73 0.25 24.56 -2514.6 2498.24c-264.14,264.13 -692.21,264.13 -956.34,0z"/>
  <path class="fil32" d="M5830.55 6187.43l0 0c-147.57,-147.57 -147.57,-386.41 0,-533.98l1980.63 -1980.63 -2016.35 -2016.1c-135.66,-135.66 -135.66,-355.4 0,-491.07 276.04,-275.79 723.21,-275.79 999.25,0l2507.16 2499.23 0.25 24.56 -2514.6 2497.99c-264.14,263.88 -692.21,263.88 -956.34,0z"/>
  <path class="fil32" d="M5830.55 6163.37l0 0c-147.57,-147.32 -147.57,-386.4 0,-533.72l1980.63 -1980.64 -2016.35 -2016.35c-135.66,-135.41 -135.66,-355.4 0,-491.06 276.04,-275.79 723.21,-275.79 999.25,0l2507.16 2499.47 0.25 24.56 -2514.6 2497.74c-264.14,264.13 -692.21,264.13 -956.34,0z"/>
  <path class="fil33" d="M5830.55 6139.31l0 0c-147.57,-147.32 -147.57,-386.4 0,-533.72l1980.63 -1980.64 -2016.35 -2016.1c-135.66,-135.66 -135.66,-355.65 0,-491.06 276.04,-276.04 723.21,-276.04 999.25,0l2507.16 2499.48 0.25 24.55 -2514.6 2497.49c-264.14,264.14 -692.21,264.14 -956.34,0z"/>
  <path class="fil33" d="M5830.55 6115.5l0 0c-147.57,-147.56 -147.57,-386.4 0,-533.97l1980.63 -1980.63 -2016.35 -2016.1c-135.66,-135.67 -135.66,-355.41 0,-491.07 276.04,-275.79 723.21,-275.79 999.25,0l2507.16 2499.73 0.25 24.55 -2514.6 2497.49c-264.14,263.89 -692.21,263.89 -956.34,0z"/>
  <path class="fil33" d="M5830.55 6091.45l0 0c-147.57,-147.32 -147.57,-386.41 0,-533.73l1980.63 -1980.63 -2016.35 -2016.35c-135.66,-135.42 -135.66,-355.4 0,-491.07 276.04,-275.79 723.21,-275.79 999.25,0l2507.16 2499.98 0.25 24.55 -2514.6 2497.25c-264.14,264.13 -692.21,264.13 -956.34,0z"/>
  <path class="fil34" d="M5830.55 6067.39l0 0c-147.57,-147.32 -147.57,-386.41 0,-533.73l1980.63 -1980.63 -2016.35 -2016.1c-135.66,-135.66 -135.66,-355.4 0,-491.07 276.04,-276.04 723.21,-276.04 999.25,0l2507.16 2499.98 0.25 24.8 -2514.6 2496.75c-264.14,264.13 -692.21,264.13 -956.34,0z"/>
  <path class="fil34" d="M5830.55 6043.58l0 0c-147.57,-147.57 -147.57,-386.41 0,-533.97l1980.63 -1980.64 -2016.35 -2016.1c-135.66,-135.66 -135.66,-355.4 0,-491.06 276.04,-275.8 723.21,-275.8 999.25,0l2507.16 2500.47 0.25 24.55 -2514.6 2496.75c-264.14,263.89 -692.21,263.89 -956.34,0z"/>
  <path class="fil34" d="M5830.55 6019.52l0 0c-147.57,-147.32 -147.57,-386.4 0,-533.72l1980.63 -1980.64 -2016.35 -2016.35c-135.66,-135.41 -135.66,-355.4 0,-491.06 276.04,-275.79 723.21,-275.79 999.25,0l2507.16 2500.72 0.25 24.55 -2514.6 2496.5c-264.14,264.14 -692.21,264.14 -956.34,0z"/>
  <path class="fil35" d="M5830.55 5995.47l0 0c-147.57,-147.32 -147.57,-386.41 0,-533.73l1980.63 -1980.63 -2016.35 -2016.1c-135.66,-135.67 -135.66,-355.41 0,-491.07 276.04,-276.04 723.21,-276.04 999.25,0l2507.16 2500.72 0.25 24.55 -2514.6 2496.26c-264.14,264.13 -692.21,264.13 -956.34,0z"/>
  <path class="fil35" d="M5830.55 5971.66l0 0c-147.57,-147.57 -147.57,-386.41 0,-533.98l1980.63 -1980.38 -2016.35 -2016.35c-135.66,-135.67 -135.66,-355.41 0,-491.07 276.04,-275.79 723.21,-275.79 999.25,0l2507.16 2500.97 0.25 24.55 -2514.6 2496.26c-264.14,264.13 -692.21,264.13 -956.34,0z"/>
  <path class="fil36" d="M5830.55 5947.6l0 0c-147.57,-147.32 -147.57,-386.41 0,-533.73l1980.63 -1980.63 -2016.35 -2016.1c-135.66,-135.66 -135.66,-355.65 0,-491.07 276.04,-276.04 723.21,-276.04 999.25,-0.25l2507.16 2501.22 0.25 24.8 -2514.6 2495.76c-264.14,264.13 -692.21,264.13 -956.34,0z"/>
  <path class="fil37" d="M5830.55 5923.54l0 0c-147.57,-147.32 -147.57,-386.4 0,-533.72l1980.63 -1980.64 -2016.35 -2016.1c-135.66,-135.66 -135.66,-355.4 0,-491.07 276.04,-276.03 723.21,-276.03 999.25,0l2507.16 2501.22 0.25 24.8 -2514.6 2495.51c-264.14,264.14 -692.21,264.14 -956.34,0z"/>
  <path class="fil37" d="M5830.55 5899.73l0 0c-147.57,-147.57 -147.57,-386.4 0,-533.97l1980.63 -1980.39 -2016.35 -2016.35c-135.66,-135.41 -135.66,-355.4 0,-491.06 276.04,-275.79 723.21,-275.79 999.25,0l2507.16 2501.71 0.25 24.55 -2514.6 2495.51c-264.14,264.14 -692.21,264.14 -956.34,0z"/>
  <path class="fil38" d="M5830.55 5875.67l0 0c-147.57,-147.32 -147.57,-386.4 0,-533.72l1980.63 -1980.63 -2016.35 -2016.11c-135.66,-135.66 -135.66,-355.65 0,-491.06 276.04,-276.04 723.21,-276.04 999.25,0l2507.16 2501.71 0.25 24.55 -2514.6 2495.26c-264.14,264.14 -692.21,264.14 -956.34,0z"/>
  <path class="fil38" d="M5830.55 5851.62l0 0c-147.57,-147.32 -147.57,-386.16 0,-533.73l1980.63 -1980.63 -2016.35 -2016.1c-135.66,-135.67 -135.66,-355.41 0,-491.07 276.04,-276.04 723.21,-276.04 999.25,0l2507.16 2501.96 0.25 24.55 -2514.6 2495.27c-264.14,263.88 -692.21,263.88 -956.34,-0.25z"/>
  <path class="fil39" d="M5830.55 5827.81l0 0c-147.57,-147.32 -147.57,-386.41 0,-533.73l1980.63 -1980.63 -2016.35 -2016.35c-135.66,-135.42 -135.66,-355.4 0,-491.07 276.04,-275.79 723.21,-275.79 999.25,0l2507.16 2502.21 0.25 24.55 -2514.6 2495.02c-264.14,264.13 -692.21,264.13 -956.34,0z"/>
  <path class="fil39" d="M5830.55 5803.75l0 0c-147.57,-147.32 -147.57,-386.4 0,-533.72l1980.63 -1980.64 -2016.35 -2016.1c-135.66,-135.66 -135.66,-355.65 0,-491.07 276.04,-276.03 723.21,-276.03 999.25,0l2507.16 2502.21 0.25 24.8 -2514.6 2494.52c-264.14,264.13 -692.21,264.13 -956.34,0z"/>
  <path class="fil40" d="M5830.55 5779.94l0 0c-147.57,-147.57 -147.57,-386.4 0,-533.97l1980.63 -1980.64 -2016.35 -2016.1c-135.66,-135.66 -135.66,-355.4 0,-491.06 276.04,-275.79 723.21,-275.79 999.25,0l2507.16 2502.7 0.25 24.55 -2514.6 2494.52c-264.14,263.89 -692.21,263.89 -956.34,0z"/>
  <path class="fil40" d="M5830.55 5755.88l0 0c-147.57,-147.32 -147.57,-386.4 0,-533.72l1980.63 -1980.64 -2016.35 -2016.34c-135.66,-135.42 -135.66,-355.41 0,-491.07 276.04,-275.79 723.21,-275.79 999.25,0l2507.16 2502.95 0.25 24.55 -2514.6 2494.27c-264.14,264.14 -692.21,264.14 -956.34,0z"/>
  <path class="fil41" d="M5830.55 5731.83l0 0c-147.57,-147.32 -147.57,-386.41 0,-533.73l1980.63 -1980.63 -2016.35 -2016.1c-135.66,-135.67 -135.66,-355.41 0,-491.07 276.04,-276.04 723.21,-276.04 999.25,0l2507.16 2502.95 0.25 24.55 -2514.6 2494.03c-264.14,264.13 -692.21,264.13 -956.34,0z"/>
  <path class="fil41" d="M5830.55 5708.02l0 0c-147.57,-147.57 -147.57,-386.41 0,-533.98l1980.63 -1980.63 -2016.35 -2016.1c-135.66,-135.66 -135.66,-355.4 0,-491.07 276.04,-275.79 723.21,-275.79 999.25,0l2507.16 2503.2 0.25 24.56 -2514.6 2494.02c-264.14,263.88 -692.21,263.88 -956.34,0z"/>
  <path class="fil41" d="M5830.55 5683.96l0 0c-147.57,-147.32 -147.57,-386.4 0,-533.72l1980.63 -1980.64 -2016.35 -2016.35c-135.66,-135.41 -135.66,-355.4 0,-491.06 276.04,-275.79 723.21,-275.79 999.25,0l2507.16 2503.44 0.25 24.8 -2514.6 2493.53c-264.14,264.13 -692.21,264.13 -956.34,0z"/>
  <path class="fil42" d="M5830.55 5659.9l0 0c-147.57,-147.32 -147.57,-386.4 0,-533.72l1980.63 -1980.64 -2016.35 -2016.1c-135.66,-135.66 -135.66,-355.4 0,-491.06 276.04,-276.04 723.21,-276.04 999.25,0l2507.16 2503.44 0.25 24.8 -2514.6 2493.28c-264.14,264.14 -692.21,264.14 -956.34,0z"/>
  <path class="fil42" d="M5830.55 5636.09l0 0c-147.57,-147.56 -147.57,-386.4 0,-533.97l1980.63 -1980.39 -2016.35 -2016.34c-135.66,-135.67 -135.66,-355.41 0,-491.07 276.04,-275.79 723.21,-275.79 999.25,0l2507.16 2503.94 0.25 24.56 -2514.6 2493.27c-264.14,263.89 -692.21,263.89 -956.34,0z"/>
  <path class="fil43" d="M5830.55 5612.04l0 0c-147.57,-147.32 -147.57,-386.41 0,-533.73l1980.63 -1980.63 -2016.35 -2016.1c-135.66,-135.67 -135.66,-355.65 0,-491.32 276.04,-275.79 723.21,-275.79 999.25,0l2507.16 2504.19 0.25 24.56 -2514.6 2493.03c-264.14,264.13 -692.21,264.13 -956.34,0z"/>
  <path class="fil43" d="M5830.55 5587.98l0 0c-147.57,-147.32 -147.57,-386.41 0,-533.73l1980.63 -1980.63 -2016.35 -2016.1c-135.66,-135.66 -135.66,-355.4 0,-491.07 276.04,-276.04 723.21,-276.04 999.25,0l2507.16 2504.19 0.25 24.56 -2514.6 2492.78c-264.14,264.13 -692.21,264.13 -956.34,0z"/>
  <path class="fil44" d="M5830.55 5564.17l0 0c-147.57,-147.57 -147.57,-386.4 0,-533.97l1980.63 -1980.39 -2016.35 -2016.35c-135.66,-135.66 -135.66,-355.4 0,-491.06 276.04,-275.8 723.21,-275.8 999.25,0l2507.16 2504.43 0.25 24.56 -2514.6 2492.78c-264.14,264.13 -692.21,264.13 -956.34,0z"/>
  <path class="fil44" d="M5830.55 5540.11l0 0c-147.57,-147.32 -147.57,-386.4 0,-533.72l1980.63 -1980.64 -2016.35 -2016.1c-135.66,-135.66 -135.66,-355.65 0,-491.06 276.04,-276.04 723.21,-276.04 999.25,-0.25l2507.16 2504.69 0.25 24.8 -2514.6 2492.28c-264.14,264.14 -692.21,264.14 -956.34,0z"/>
  <path class="fil45" d="M5830.55 5516.06l0 0c-147.57,-147.32 -147.57,-386.16 0,-533.73l1980.63 -1980.63 -2016.35 -2016.1c-135.66,-135.67 -135.66,-355.41 0,-491.07 276.04,-276.04 723.21,-276.04 999.25,0l2507.16 2504.69 0.25 24.8 -2514.6 2492.04c-264.14,264.13 -692.21,264.13 -956.34,0z"/>
  <path class="fil45" d="M5830.55 5492.25l0 0c-147.57,-147.57 -147.57,-386.41 0,-533.98l1980.63 -1980.38 -2016.35 -2016.35c-135.66,-135.67 -135.66,-355.4 0,-491.07 276.04,-275.79 723.21,-275.79 999.25,0l2507.16 2505.18 0.25 24.56 -2514.6 2492.04c-264.14,264.13 -692.21,264.13 -956.34,0z"/>
  <path class="fil45" d="M5830.55 5468.19l0 0c-147.57,-147.32 -147.57,-386.41 0,-533.73l1980.63 -1980.63 -2016.35 -2016.1c-135.66,-135.66 -135.66,-355.65 0,-491.07 276.04,-276.04 723.21,-276.04 999.25,0l2507.16 2505.19 0.25 24.55 -2514.6 2491.79c-264.14,264.13 -692.21,264.13 -956.34,0z"/>
  <path class="fil46" d="M5830.55 5444.13l0 0c-147.57,-147.32 -147.57,-386.16 0,-533.72l1980.63 -1980.64 -2016.35 -2016.1c-135.66,-135.66 -135.66,-355.4 0,-491.06 276.04,-275.8 723.21,-275.8 999.25,0l2507.16 2505.43 0.25 24.55 -2514.6 2491.79c-264.14,263.89 -692.21,263.89 -956.34,-0.25z"/>
  <path class="fil46" d="M5830.55 5420.32l0 0c-147.57,-147.57 -147.57,-386.4 0,-533.72l1980.63 -1980.64 -2016.35 -2016.35c-135.66,-135.41 -135.66,-355.4 0,-491.06 276.04,-275.79 723.21,-275.79 999.25,0l2507.16 2505.68 0.25 24.8 -2514.6 2491.29c-264.14,264.14 -692.21,264.14 -956.34,0z"/>
  <path class="fil47" d="M5830.55 5396.26l0 0c-147.57,-147.32 -147.57,-386.4 0,-533.72l1980.63 -1980.63 -2016.35 -2016.1c-135.66,-135.67 -135.66,-355.66 0,-491.07 276.04,-276.04 723.21,-276.04 999.25,0l2507.16 2505.68 0.25 24.8 -2514.6 2491.04c-264.14,264.14 -692.21,264.14 -956.34,0z"/>
  <path class="fil47" d="M5830.55 5372.46l0 0c-147.57,-147.57 -147.57,-386.41 0,-533.98l1980.63 -1980.63 -2016.35 -2016.1c-135.66,-135.67 -135.66,-355.41 0,-491.07l0 0c276.04,-275.79 723.21,-275.79 999.25,0l2507.16 2505.93 0.25 24.8 -2514.6 2491.05c-264.14,263.88 -692.21,263.88 -956.34,0z"/>
  <path class="fil48" d="M5830.55 5348.4l0 0c-147.57,-147.32 -147.57,-386.41 0,-533.73l1980.63 -1980.63 -2016.35 -2016.35c-135.66,-135.41 -135.66,-355.4 0,-491.07 276.04,-275.79 723.21,-275.79 999.25,0l2507.16 2506.43 0.25 24.55 -2514.6 2490.8c-264.14,264.13 -692.21,264.13 -956.34,0z"/>
  <path class="fil48" d="M5830.55 5324.34l0 0c-147.57,-147.32 -147.57,-386.4 0,-533.72l1980.63 -1980.64 -2016.35 -2016.1c-135.66,-135.66 -135.66,-355.65 0,-491.07l0 0c276.04,-276.03 723.21,-276.03 999.25,0l2507.16 2506.43 0.25 24.55 -2514.6 2490.55c-264.14,264.14 -692.21,264.14 -956.34,0z"/>
  <path class="fil49" d="M5830.55 5300.53l0 0c-147.57,-147.57 -147.57,-386.4 0,-533.97l1980.63 -1980.39 -2016.35 -2016.35c-135.66,-135.66 -135.66,-355.4 0,-491.06 276.04,-275.79 723.21,-275.79 999.25,0l2507.16 2506.67 0.25 24.55 -2514.6 2490.55c-264.14,263.89 -692.21,263.89 -956.34,0z"/>
  <path class="fil50" d="M5830.55 5276.47l0 0c-147.57,-147.32 -147.57,-386.4 0,-533.72l1980.63 -1980.63 -2016.35 -2016.35c-135.66,-135.42 -135.66,-355.41 0,-491.07l0 0c276.04,-275.79 723.21,-275.79 999.25,0l2507.16 2506.92 0.25 24.8 -2514.6 2490.05c-264.14,264.14 -692.21,264.14 -956.34,0z"/>
  <path class="fil50" d="M5830.55 5252.42l0 0c-147.57,-147.32 -147.57,-386.41 0,-533.73l1980.63 -1980.63 -2016.35 -2016.1c-135.66,-135.67 -135.66,-355.41 0,-491.07 276.04,-276.04 723.21,-276.04 999.25,0l2507.16 2506.92 0.25 24.8 -2514.6 2489.81c-264.14,264.13 -692.21,264.13 -956.34,0z"/>
  <path class="fil51" d="M5830.55 5228.61l0 0c-147.57,-147.57 -147.57,-386.41 0,-533.97l1980.63 -1980.39 -2016.35 -2016.35c-135.66,-135.66 -135.66,-355.4 0,-491.07l0 0c276.04,-275.79 723.21,-275.79 999.25,0l2507.16 2507.42 0.25 24.55 -2514.6 2489.81c-264.14,263.88 -692.21,263.88 -956.34,0z"/>
  <path class="fil52" d="M3045.11 1760.89c20.58,-1.49 42.16,-2.24 63.74,-2.24l66.96 0c97.72,0 174.35,25.3 227.43,75.65 53.07,50.34 79.12,112.84 79.12,191.22 0,106.39 -31.25,181.79 -95.49,230.4 -66.96,50.35 -153.77,75.89 -258.18,75.89l-153.03 0 0 -564.97c2.98,-0.5 5.96,-0.75 9.18,-0.99 18.85,-1.74 38.94,-3.23 60.27,-4.96zm-69.45 809.76l243.55 0 408.73 762.64 332.34 0 -470.48 -844.49c17.11,-9.17 35.46,-20.58 55.3,-33.97 37.45,-24.8 73.91,-57.79 108.14,-97.47 34.72,-39.93 64.23,-88.54 88.04,-144.1 24.31,-56.79 36.71,-122.52 36.71,-195.18 0,-93.51 -17.36,-174.61 -51.34,-241.32 -33.98,-66.22 -80.11,-121.03 -136.9,-162.7 -55.81,-40.67 -121.28,-70.43 -194.45,-88.29 -71.18,-17.11 -147.07,-25.79 -225.44,-25.79 -67.96,0 -144.35,3.47 -226.93,9.92 -82.34,6.69 -156.5,16.12 -219.99,27.77l-32.99 6.2 0 1789.42 285.71 0 0 -762.64z"/>
  <path class="fil52" d="M4747.97 1897.29c58.03,0 107.64,-18.6 147.32,-55.3 40.67,-37.45 61.26,-84.08 61.26,-138.4 0,-55.55 -20.34,-103.67 -60.02,-143.6 -39.93,-39.68 -90.03,-60.01 -148.56,-60.01 -57.79,0 -105.9,20.58 -143.35,61.25 -36.71,39.69 -55.31,87.55 -55.31,142.36 0,53.57 19.1,99.95 56.3,137.4 37.45,37.21 85.31,56.3 142.36,56.3z"/>
  <polygon class="fil52" points="5315.42,3087.01 4894.54,3087.01 4894.54,2014.85 4187.95,2014.85 4187.95,2261.13 4618.75,2261.13 4618.75,3087.01 4187.95,3087.01 4187.95,3333.29 5315.42,3333.29 "/>
  <polygon class="fil52" points="6691.65,3087.01 6278.46,2641.83 6863.03,2014.85 6520.27,2014.85 6032.68,2544.86 5954.3,2544.86 5954.3,1519.82 5472.91,1519.82 5472.91,1766.09 5683.23,1766.09 5683.23,3333.29 5954.3,3333.29 5954.3,2773.52 6032.92,2773.52 6562.68,3333.29 6875.18,3333.29 6875.18,3087.01 "/>
  <path class="fil52" d="M355.16 3687.95c20.58,-1.49 42.16,-2.23 63.73,-2.23l66.97 0c97.72,0 174.35,25.29 227.43,75.64 53.07,50.35 79.11,112.85 79.11,191.22 0,106.4 -31.25,181.79 -95.48,230.4 -66.97,50.35 -153.77,76.14 -258.18,76.14l-153.03 0 0 -565.22c2.98,-0.25 5.95,-0.74 9.18,-0.99 18.85,-1.49 38.94,-3.23 60.27,-4.96zm499.99 694.19c37.45,-25.05 73.91,-57.79 108.13,-97.47 34.73,-40.18 64.24,-88.79 88.05,-144.34 24.3,-56.8 36.7,-122.52 36.7,-195.19 0,-93.5 -17.36,-174.6 -51.33,-241.07 -33.98,-66.47 -80.11,-121.28 -136.91,-162.7 -55.8,-40.92 -121.28,-70.68 -194.44,-88.29 -71.18,-17.36 -147.07,-26.04 -225.69,-26.04 -67.71,0 -144.1,3.47 -226.69,10.17 -82.34,6.69 -156.49,15.87 -220.23,27.77l-32.74 5.96 0 1789.41 285.71 0 0 -762.64 243.55 0 408.73 762.64 332.33 0 -470.48 -844.48c17.12,-9.18 35.47,-20.34 55.31,-33.73z"/>
  <path class="fil52" d="M1754.45 4265.08c58.53,-71.68 145.08,-106.65 265.12,-106.65 64.98,0 120.29,12.65 164.19,37.2 44.64,24.8 81.59,58.29 110.12,99.21 29.01,41.91 50.34,89.53 62.99,141.37 13.39,53.57 19.84,109.12 19.84,164.92 0,148.32 -30.5,260.91 -90.77,334.82 -59.28,72.67 -146.33,107.89 -266.37,107.89 -65.22,0 -120.28,-12.4 -164.18,-36.96 -44.4,-24.8 -81.1,-58.03 -108.63,-98.95 -28.28,-41.92 -49.36,-90.03 -62.01,-142.86 -13.14,-54.31 -19.84,-109.37 -19.84,-163.94 0,-149.8 30.01,-262.89 89.54,-336.05zm752.47 -150.55c-53.08,-62 -120.78,-111.6 -200.89,-147.81 -80.11,-35.97 -176.09,-54.32 -285.22,-54.32 -204.11,0 -364.08,63.24 -475.69,188 -110.11,123.26 -166.17,291.91 -166.17,500.73 0,94.5 12.65,184.03 37.7,266.62 25.3,84.32 65.23,158.23 118.06,219.99 53.32,62.25 121.28,112.1 202.38,148.06 80.85,35.96 176.33,54.32 283.72,54.32 100.45,0 191.72,-16.37 271.33,-48.86 80.36,-32.74 149.06,-79.86 204.11,-140.13 54.57,-60.02 96.73,-133.68 124.76,-218.75 27.52,-83.83 41.66,-178.32 41.66,-281.25 0,-94.24 -12.65,-183.77 -37.7,-266.61 -25.29,-84.08 -65.22,-158.23 -118.05,-219.99z"/>
  <path class="fil52" d="M3240.05 4265.08c58.28,-71.68 145.08,-106.65 265.12,-106.65 64.98,0 120.29,12.65 164.19,37.2 44.64,24.8 81.59,58.29 110.12,99.21 29.01,41.91 50.34,89.53 62.99,141.37 13.15,53.57 19.84,109.12 19.84,164.92 0,148.32 -30.5,260.91 -90.77,334.82 -59.28,72.67 -146.33,107.89 -266.37,107.89 -65.22,0 -120.53,-12.4 -164.43,-36.96 -44.39,-24.8 -80.85,-58.03 -108.38,-98.95 -28.52,-41.92 -49.36,-90.03 -62.25,-142.86 -13.15,-54.31 -19.84,-109.37 -19.84,-163.94 0,-149.8 30.25,-262.89 89.78,-336.05zm752.22 -150.55c-53.07,-62 -120.53,-111.6 -200.89,-147.81 -79.86,-35.97 -175.84,-54.32 -284.97,-54.32 -204.11,0 -364.33,63.24 -475.69,188 -110.36,123.26 -166.17,291.91 -166.17,500.73 0,94.5 12.65,184.03 37.7,266.62 25.3,84.32 64.98,158.23 118.06,219.99 53.32,62.25 121.28,112.1 202.38,148.06 80.6,35.96 176.08,54.32 283.72,54.32 100.45,0 191.72,-16.37 271.33,-48.86 80.36,-32.74 148.81,-79.86 203.87,-140.13 54.81,-60.02 96.72,-133.68 124.99,-218.75 27.53,-83.83 41.42,-178.32 41.42,-281.25 0,-94.24 -12.65,-183.77 -37.45,-266.61 -25.54,-84.08 -65.22,-158.23 -118.3,-219.99z"/>
  <path class="fil52" d="M5473.16 4920.58c-42.41,31.49 -90.53,61.01 -143.6,88.04 -49.11,25.05 -108.14,37.7 -175.35,37.7 -97.22,0 -172.12,-25.3 -222.22,-75.15 -50.34,-49.6 -75.89,-129.96 -75.89,-238.84l0 -544.14 661.2 0 0 -246.03 -661.2 0 0 -312.25 -275.79 76.64 0 235.61 -294.64 0 0 246.03 294.64 0 0 573.9c0,91.03 14.39,170.89 42.91,237.35 28.52,67.22 67.7,123.02 116.56,166.67 48.61,43.15 105.66,75.39 169.15,95.98 62.25,20.09 129.46,30.51 199.4,30.51 88.05,0 175.59,-14.89 259.42,-44.4 84.08,-29.51 157.49,-69.19 218.75,-118.05l24.06 -19.1 -96.98 -220.48 -40.42 30.01z"/>
 </g>
</svg>
