<?xml version="1.0" encoding="UTF-8"?>
<!DOCTYPE svg PUBLIC "-//W3C//DTD SVG 1.1//EN" "http://www.w3.org/Graphics/SVG/1.1/DTD/svg11.dtd">
<!-- Creator: CorelDRAW 2018 (64-Bit) -->
<svg xmlns="http://www.w3.org/2000/svg" xml:space="preserve" width="84.6666mm" height="84.6666mm" version="1.1" style="shape-rendering:geometricPrecision; text-rendering:geometricPrecision; image-rendering:optimizeQuality; fill-rule:evenodd; clip-rule:evenodd"
viewBox="0 0 8466.66 8466.66"
 xmlns:xlink="http://www.w3.org/1999/xlink">
 <defs>
  <style type="text/css">
   <![CDATA[
    .fil0 {fill:#9E9C99}
   ]]>
  </style>
 </defs>
 <g id="_1">
  <metadata id="CorelCorpID_0Corel-Layer"/>
  <path class="fil0" d="M4233.35 4203.73c733.99,0 1332.62,-600.39 1332.62,-1336.49 0,-736.11 -598.63,-1336.5 -1332.62,-1336.5 -734.02,0 -1332.65,600.39 -1332.65,1336.5 0,736.1 598.63,1336.49 1332.65,1336.49z"/>
  <path class="fil0" d="M5521.57 4772.25c687.36,77.94 1229.69,771.9 1229.69,1609.3 0,194.52 -29.32,381.28 -82.8,554.35l-4870.2 0c-53.55,-173.07 -82.83,-359.83 -82.83,-554.35 0,-837.38 542.27,-1531.32 1229.63,-1609.29l635.24 1409.89 201.26 446.69 903.54 0 201.26 -446.69 635.21 -1409.9z"/>
  <polygon class="fil0" points="4233.35,5359.43 4053.86,5068.38 3874.33,4777.34 4233.35,4777.34 4592.34,4777.34 4412.85,5068.38 "/>
  <polygon class="fil0" points="4233.35,4771.14 4424.38,5732.5 4615.41,6693.78 4233.35,6693.78 3851.26,6693.78 4042.29,5732.5 "/>
 </g>
</svg>
