<?xml version="1.0" encoding="UTF-8"?>
<!DOCTYPE svg PUBLIC "-//W3C//DTD SVG 1.1//EN" "http://www.w3.org/Graphics/SVG/1.1/DTD/svg11.dtd">
<!-- Creator: CorelDRAW 2018 (64-Bit) -->
<svg xmlns="http://www.w3.org/2000/svg" xml:space="preserve" width="84.6666mm" height="84.6666mm" version="1.1" style="shape-rendering:geometricPrecision; text-rendering:geometricPrecision; image-rendering:optimizeQuality; fill-rule:evenodd; clip-rule:evenodd"
viewBox="0 0 8466.66 8466.66"
 xmlns:xlink="http://www.w3.org/1999/xlink">
 <defs>
  <style type="text/css">
   <![CDATA[
    .str0 {stroke:#9E9C99;stroke-width:169.33;stroke-miterlimit:22.926}
    .fil1 {fill:none}
    .fil0 {fill:#9E9C99}
   ]]>
  </style>
 </defs>
 <g id="Слой_x0020_1">
  <metadata id="CorelCorpID_0Corel-Layer"/>
  <g id="_1617990792688">
   <path class="fil0" d="M3142.29 4626.45l104.74 0 0.37 0.35c5.74,5.49 11.57,10.92 17.45,16.3l2.91 2.67c5.7,5.18 11.48,10.31 17.31,15.41l4.05 3.53c5.86,5.07 11.77,10.08 17.76,15.05l3.21 2.65c6.16,5.08 12.38,10.13 18.67,15.11l3.07 2.4c5.74,4.52 11.54,8.99 17.39,13.42l3.28 2.5c6.4,4.82 12.89,9.57 19.42,14.28l3.71 2.68c6.44,4.61 12.94,9.17 19.5,13.68l4.22 2.88c6.55,4.46 13.14,8.88 19.8,13.24l4.1 2.65c6.67,4.33 13.39,8.63 20.17,12.85l1.02 0.65 0.09 0.05 0.71 0.44c6.79,4.21 13.65,8.35 20.55,12.46l4.86 2.89c6.84,4.03 13.72,8 20.66,11.92l4.61 2.6c7.14,4 14.33,7.95 21.57,11.83l3.79 2.01c7.47,3.98 14.99,7.9 22.57,11.76l3.18 1.6c7.03,3.55 14.11,7.04 21.24,10.49l3.81 1.85c7.53,3.61 15.13,7.16 22.76,10.65l4.35 2c7.65,3.47 15.35,6.88 23.11,10.23l4.65 1.99c7.91,3.39 15.87,6.73 23.88,9.98l3.18 1.28c8.05,3.25 16.15,6.44 24.3,9.56l1.31 0.52 0.07 0.02 1.08 0.41c8.25,3.14 16.55,6.2 24.9,9.2l3.15 1.14c8.32,2.97 16.69,5.87 25.1,8.7l4.28 1.44c8.33,2.78 16.7,5.5 25.13,8.14l4.47 1.38c8.49,2.64 17.01,5.22 25.59,7.72l3.1 0.88c8.45,2.44 16.94,4.82 25.47,7.12l2.6 0.71c8.84,2.37 17.73,4.64 26.65,6.86l4.19 1.04c8.54,2.1 17.13,4.12 25.74,6.08l5.77 1.29c8.62,1.92 17.29,3.8 25.98,5.58l4.21 0.84c9.29,1.88 18.58,3.69 27.95,5.41l0.04 0.01c9.77,1.79 19.6,3.47 29.46,5.08l2.36 0.39c9.11,1.48 18.27,2.86 27.45,4.19l6.04 0.85c8.82,1.23 17.67,2.4 26.55,3.49l4.9 0.59c9.39,1.12 18.81,2.18 28.27,3.14l2.34 0.22c9.37,0.94 18.77,1.79 28.2,2.57l3.07 0.26c9.52,0.76 19.08,1.42 28.66,2.02l4.51 0.28c9.41,0.56 18.85,1.03 28.31,1.43l5.21 0.2c9.47,0.37 18.97,0.67 28.49,0.87l4.11 0.07c10.07,0.2 20.17,0.3 30.3,0.3 10.13,0 20.23,-0.11 30.3,-0.3l4.11 -0.07c9.53,-0.2 19.02,-0.5 28.49,-0.87l5.21 -0.2c9.45,-0.4 18.87,-0.87 28.27,-1.43l4.59 -0.29c9.57,-0.6 19.12,-1.24 28.62,-2.01l3.1 -0.26c9.41,-0.77 18.79,-1.63 28.14,-2.56l2.37 -0.23c9.46,-0.96 18.87,-2.02 28.27,-3.14l4.9 -0.59c8.88,-1.09 17.73,-2.26 26.55,-3.49l6.04 -0.85c9.18,-1.32 18.34,-2.72 27.45,-4.19l2.36 -0.39c9.86,-1.61 19.69,-3.29 29.46,-5.08l0.04 -0.01c9.31,-1.7 18.55,-3.52 27.78,-5.38l4.5 -0.9c8.61,-1.77 17.18,-3.61 25.72,-5.52l5.96 -1.34c8.6,-1.95 17.17,-3.97 25.69,-6.06l4.19 -1.04c8.92,-2.22 17.81,-4.49 26.65,-6.86l2.6 -0.71c8.53,-2.3 17.02,-4.68 25.47,-7.12l3.1 -0.88c8.64,-2.51 17.22,-5.12 25.77,-7.77l4.11 -1.27c8.48,-2.66 16.91,-5.4 25.31,-8.2l4.28 -1.44c8.42,-2.84 16.8,-5.74 25.13,-8.71l2.96 -1.07c8.63,-3.11 17.22,-6.27 25.75,-9.52l0.4 -0.15 0.06 -0.02 0.62 -0.24c8.4,-3.21 16.75,-6.51 25.04,-9.86l3.13 -1.26c8.08,-3.28 16.09,-6.64 24.07,-10.06l4.39 -1.88c7.68,-3.32 15.32,-6.7 22.91,-10.14l5.09 -2.33c7.47,-3.42 14.92,-6.89 22.29,-10.43l3.94 -1.92c7.06,-3.42 14.08,-6.89 21.06,-10.41l3.24 -1.62c7.59,-3.86 15.13,-7.8 22.61,-11.78l3.73 -1.98c7.37,-3.95 14.67,-7.97 21.93,-12.04l3.85 -2.16c7.19,-4.06 14.31,-8.17 21.39,-12.34l4.06 -2.42c7.07,-4.21 14.11,-8.45 21.07,-12.77l0.68 -0.42 0.09 -0.05 0.91 -0.58c7.08,-4.41 14.1,-8.89 21.06,-13.42l2.98 -1.93c6.88,-4.5 13.7,-9.06 20.45,-13.67l3.79 -2.59c6.72,-4.62 13.39,-9.3 19.99,-14.02l2.84 -2.05c6.71,-4.83 13.36,-9.72 19.93,-14.66l3.06 -2.32c6.18,-4.68 12.31,-9.41 18.37,-14.18l2.02 -1.58c6.48,-5.12 12.88,-10.32 19.21,-15.55l2.88 -2.37c6.14,-5.1 12.21,-10.26 18.22,-15.46l3.23 -2.81c6,-5.23 11.93,-10.5 17.79,-15.83l2.67 -2.46c5.96,-5.45 11.86,-10.94 17.67,-16.49l0.35 -0.33 104.73 0c703.33,0 1278.75,684.67 1278.75,1521.53 0,183.06 -27.63,358.81 -77.93,521.72l-4583.64 0c-50.38,-162.91 -77.97,-338.66 -77.97,-521.72 0,-836.86 575.38,-1521.53 1278.72,-1521.53z"/>
   <path class="fil0" d="M4222.77 4563.13c-1.7,-0.66 -1.5,-3.85 -28.69,-34.09 -21.07,-23.44 -35.76,-50.81 -46.28,-77.06 -7.92,-19.78 -14.75,-47.24 -19.68,-72.38 -5.35,-27.27 -3.92,-87.86 2.7,-114.51 11.26,-45.29 29.51,-94.02 61.49,-132.71 20.12,-24.34 41.76,-45.09 66.2,-63.74 1.9,-1.45 36.46,-23.43 38.59,-24.34 10.29,-4.41 27.32,-13.65 56.38,-22.75 13.43,-4.2 32.72,-8.84 52,-11.19 24.33,-2.96 53.35,-2.23 81.92,-2.52 34.96,-0.35 78.74,-0.01 111.14,-0.06 62.73,-0.1 90.35,-0.5 131.11,9.42 9.49,2.3 52.72,15.53 89.8,37.34 32.97,19.4 62.54,46.27 63.16,52.43 54.46,-12.93 81.31,-10.79 198.08,-59.83 26.74,-11.23 128.85,-67.59 185.39,-120.14 84.92,-78.95 146.13,-180.46 176.11,-261.5 48.74,-131.7 45.39,-212.65 45.39,-360.2 0,-692.79 -563.46,-1257.87 -1254.23,-1257.87 -690.81,0 -1254.23,565.08 -1254.23,1257.87 0,692.78 552.84,1257.83 1243.65,1257.83z"/>
   <path class="fil0" d="M4460.45 4099.17l185.15 0c131.76,0 239.52,107.79 239.52,239.55 0,131.75 -107.76,239.54 -239.52,239.54l-185.15 0c-131.72,0 -239.51,-107.79 -239.51,-239.54 0,-131.76 107.79,-239.55 239.51,-239.55z"/>
   <path class="fil1 str0" d="M2742.15 3356.35c0,-861.24 666.86,-1559.38 1489.5,-1559.38 822.61,0 1489.46,698.14 1489.46,1559.38 0,572.35 -330.23,845.19 -793.22,963.86 -56.58,14.5 -115.14,26.71 -175.33,36.87"/>
  </g>
 </g>
</svg>
