<?xml version="1.0" encoding="UTF-8"?>
<!DOCTYPE svg PUBLIC "-//W3C//DTD SVG 1.1//EN" "http://www.w3.org/Graphics/SVG/1.1/DTD/svg11.dtd">
<!-- Creator: CorelDRAW 2018 (64-Bit) -->
<svg xmlns="http://www.w3.org/2000/svg" xml:space="preserve" width="84.6666mm" height="84.6666mm" version="1.1" style="shape-rendering:geometricPrecision; text-rendering:geometricPrecision; image-rendering:optimizeQuality; fill-rule:evenodd; clip-rule:evenodd"
viewBox="0 0 8466.66 8466.66"
 xmlns:xlink="http://www.w3.org/1999/xlink">
 <defs>
  <style type="text/css">
   <![CDATA[
    .fil1 {fill:none}
    .fil2 {fill:#9E9C99}
    .fil0 {fill:#9E9C99}
   ]]>
  </style>
 </defs>
 <g id="Слой_x0020_1">
  <metadata id="CorelCorpID_0Corel-Layer"/>
  <g id="_1617994079600">
   <path class="fil0" d="M6038.2 4093.48c-205.04,10.09 -343.68,144.3 -440.11,326.52 12.16,9.1 53.42,32.34 107.8,81.26 30.63,27.54 125.05,134.2 143.45,157.64 24.14,30.73 76.13,107.61 109.13,174.32 33.04,66.79 59.2,121.15 53.89,113.94l1444.18 1.33c20.85,-67.46 32.32,-140.3 32.32,-216.12 0,-336.37 -224.47,-613.39 -503.96,-629.51 -121.12,99.87 -286.22,161.52 -467.79,161.52 -187.19,0 -356.88,-65.54 -478.91,-170.9z"/>
   <g>
    <path class="fil0" d="M5064.88 4416.51c450.17,33.79 809.71,482.4 809.71,1026.24 0,123.7 -18.66,242.49 -52.71,352.61l-3097.89 0c-34.05,-110.12 -52.71,-228.91 -52.71,-352.61 0,-543.85 359.55,-992.47 809.73,-1026.24l0.95 0.81c4.38,3.88 8.8,7.72 13.26,11.53l4.74 4.06c4.83,4.08 9.72,8.1 14.64,12.11l4.19 3.42c4.92,3.96 9.88,7.87 14.9,11.76l4.81 3.74c4.93,3.78 9.91,7.5 14.91,11.21l4.86 3.59c5.25,3.84 10.54,7.64 15.87,11.39l4.14 2.91c5.3,3.7 10.65,7.34 16.03,10.96l4.84 3.23c5.32,3.54 10.68,7.02 16.08,10.47l5.26 3.33c5.47,3.45 10.97,6.87 16.51,10.23l4.57 2.75c5.71,3.43 11.45,6.82 17.25,10.16l4.35 2.49c6.02,3.43 12.07,6.82 18.17,10.15l3.86 2.1c6.1,3.3 12.24,6.56 18.41,9.77l4.28 2.19c6.3,3.24 12.64,6.42 19.03,9.55l3.39 1.65c6.5,3.16 13.04,6.28 19.64,9.33l3.79 1.73c6.74,3.1 13.52,6.15 20.34,9.13l2 0.85c6.91,3 13.86,5.93 20.84,8.81l3.82 1.55c6.74,2.74 13.5,5.44 20.29,8.06l1.52 0.61 0.26 0.09 0.7 0.26c6.91,2.65 13.87,5.24 20.86,7.76l3.91 1.43c6.99,2.51 14.03,4.94 21.1,7.32l3.37 1.16c7.21,2.41 14.46,4.75 21.73,7.03l3.45 1.08c7.55,2.34 15.14,4.61 22.77,6.81l2.04 0.61c7.39,2.13 14.84,4.17 22.3,6.16l4.27 1.15c7.25,1.9 14.55,3.74 21.87,5.53l3.9 0.95c7.53,1.81 15.09,3.55 22.67,5.22l3.15 0.69c7.84,1.71 15.71,3.35 23.62,4.91l2.85 0.56c7.65,1.5 15.33,2.92 23.05,4.28l4.45 0.77c7.53,1.3 15.08,2.53 22.67,3.7l4.17 0.63c7.65,1.15 15.33,2.24 23.03,3.26l3.98 0.51c7.89,1.01 15.82,1.95 23.77,2.82l2.91 0.31c8.21,0.88 16.44,1.68 24.71,2.41l2.83 0.24c8.23,0.71 16.49,1.34 24.78,1.88l3.34 0.2c8.49,0.54 17.02,1.01 25.58,1.38l0.14 0c9.01,0.39 18.04,0.69 27.11,0.89l0.84 0.02 0.8 0.01c9.11,0.2 18.24,0.3 27.41,0.3 9.16,0 18.3,-0.1 27.41,-0.3l0.8 -0.01 0.84 -0.02c9.06,-0.2 18.1,-0.5 27.1,-0.89l0.15 0c8.56,-0.37 17.08,-0.85 25.58,-1.38l3.34 -0.2c8.28,-0.55 16.53,-1.17 24.75,-1.88l2.86 -0.24c8.23,-0.72 16.42,-1.53 24.59,-2.4l3.1 -0.33c7.89,-0.86 15.74,-1.8 23.57,-2.8l4.2 -0.53c7.69,-1.02 15.36,-2.11 22.99,-3.26l4.09 -0.61c7.57,-1.16 15.11,-2.4 22.62,-3.69l4.56 -0.79c7.65,-1.35 15.26,-2.77 22.85,-4.24l3.18 -0.64c7.81,-1.54 15.59,-3.15 23.35,-4.84l3.35 -0.75c7.56,-1.66 15.08,-3.39 22.57,-5.19l3.91 -0.95c7.32,-1.79 14.61,-3.62 21.87,-5.53l4.27 -1.15c7.46,-1.99 14.87,-4.03 22.26,-6.15l2.2 -0.65c7.58,-2.2 15.13,-4.45 22.65,-6.78l3.45 -1.08c7.28,-2.28 14.52,-4.62 21.73,-7.03l3.37 -1.16c6.87,-2.32 13.73,-4.69 20.53,-7.13l4.94 -1.79c6.82,-2.48 13.61,-4.99 20.36,-7.57l0.74 -0.28 0.26 -0.09 1.52 -0.61c6.8,-2.62 13.56,-5.32 20.29,-8.06l3.82 -1.55c6.99,-2.88 13.93,-5.81 20.84,-8.81l2 -0.86c6.69,-2.91 13.32,-5.91 19.92,-8.93l4.43 -2.02c6.5,-3.01 12.95,-6.09 19.38,-9.21l3.43 -1.67c6.39,-3.13 12.73,-6.31 19.03,-9.55l4.28 -2.19c6.17,-3.2 12.32,-6.47 18.41,-9.77l3.89 -2.11c5.98,-3.26 11.91,-6.58 17.8,-9.94l5.03 -2.89c5.54,-3.2 11.05,-6.44 16.52,-9.72l5.27 -3.18c5.55,-3.38 11.07,-6.78 16.54,-10.24l4.59 -2.91c5.44,-3.47 10.82,-6.99 16.18,-10.54l5.21 -3.47c5.31,-3.57 10.59,-7.17 15.82,-10.82l4.48 -3.14c5.25,-3.69 10.45,-7.43 15.61,-11.21l4.86 -3.59c5.01,-3.7 9.98,-7.44 14.91,-11.21l4.81 -3.74c5.01,-3.89 9.98,-7.8 14.9,-11.76zm23.57 -19.59c4.45,-3.82 8.87,-7.66 13.26,-11.53l0.95 -0.81z"/>
    <path class="fil1" d="M3535.53 4414.39l1474.81 0c18.32,0 36.49,0.77 54.53,2.12 -199.81,177.27 -481.12,287.96 -791.93,287.96 -310.82,0 -592.12,-110.69 -791.92,-287.96 18.03,-1.35 36.2,-2.12 54.51,-2.12z"/>
    <path class="fil2" d="M4272.94 4371.59c466.86,0 847.68,-381.89 847.68,-850.14 0,-468.23 -380.82,-850.14 -847.68,-850.14 -466.87,0 -847.69,381.91 -847.69,850.14 0,468.25 380.82,850.14 847.69,850.14z"/>
   </g>
   <path class="fil2" d="M6517.11 4060.36c286.14,0 519.53,-234.03 519.53,-521.02 0,-286.98 -233.39,-521.05 -519.53,-521.05 -286.14,0 -519.54,234.07 -519.54,521.05 0,286.99 233.4,521.02 519.54,521.02z"/>
   <path class="fil2" d="M2444.87 4092.77c204.12,14.96 374.5,165.87 450.81,380.81 -12.16,9.1 -66.62,56.13 -114.41,109.04 -27.63,30.59 -53.97,66.73 -74,88.85 -55.13,60.92 -157.87,279.66 -147.14,265.11l-1550.02 1.33c-20.85,-67.46 -32.32,-140.3 -32.32,-216.12 0,-333.28 220.37,-608.26 496.27,-628.97 122.45,108.64 294.87,176.48 485.36,176.48 190.53,0 362.98,-67.85 485.45,-176.53z"/>
   <path class="fil2" d="M1959.42 4065.3c286.13,0 519.57,-234.03 519.57,-521.05 0,-286.95 -233.44,-521.02 -519.57,-521.02 -286.11,0 -519.54,234.07 -519.54,521.02 0,287.02 233.43,521.05 519.54,521.05z"/>
  </g>
 </g>
</svg>
