<?xml version="1.0" encoding="UTF-8"?>
<!DOCTYPE svg PUBLIC "-//W3C//DTD SVG 1.1//EN" "http://www.w3.org/Graphics/SVG/1.1/DTD/svg11.dtd">
<!-- Creator: CorelDRAW 2018 (64-Bit) -->
<svg xmlns="http://www.w3.org/2000/svg" xml:space="preserve" width="84.6666mm" height="84.6666mm" version="1.1" style="shape-rendering:geometricPrecision; text-rendering:geometricPrecision; image-rendering:optimizeQuality; fill-rule:evenodd; clip-rule:evenodd"
viewBox="0 0 8466.66 8466.66"
 xmlns:xlink="http://www.w3.org/1999/xlink">
 <defs>
  <style type="text/css">
   <![CDATA[
    .fil0 {fill:#9E9C99}
   ]]>
  </style>
 </defs>
 <g id="Слой_x0020_1">
  <metadata id="CorelCorpID_0Corel-Layer"/>
  <g id="_1617861567376">
   <path class="fil0" d="M4409.72 1927.06l1162.27 571.78 0 1027.08 -907.77 -104.56c-650.17,-74.83 -1583.73,-182.28 -3037.31,-349.68 -137.23,-15.77 -194.45,-50.97 -128.34,-78.6 387.56,-161.99 791.1,-330.94 1211.75,-506.8 438.89,-183.48 897.22,-375 1376.47,-575.45 85.76,-35.87 230.93,-29.03 322.93,16.23z"/>
   <path class="fil0" d="M1535.31 2994.04l176.53 0c33.01,0 64.05,9.31 90.96,25.57l0 -3.57 1091.88 0 0 -4.27 0 -517.22 1162.27 -571.78c92,-45.26 237.17,-52.1 322.93,-16.19 479.25,200.41 937.58,391.93 1376.47,575.41 420.69,175.86 824.19,344.81 1211.75,506.84 66.11,27.59 8.89,62.79 -128.34,78.6l-175.86 20.25 0 3055.59 -84.58 0 0 -2454.02c0,-61.92 -50.66,-112.58 -112.6,-112.58l-3572.04 0 -894.73 0c-45.9,0 -85.58,27.82 -103.08,67.4l0 2815.2 -546.59 0 0 -3268.7c0,-108.09 83.25,-196.53 185.03,-196.53z"/>
   <path class="fil0" d="M6931.36 2989.63l-176.53 0c-101.77,0 -185.03,88.51 -185.03,196.71l0 3271.59 546.59 0 0 -3271.59c0,-108.2 -83.25,-196.71 -185.03,-196.71z"/>
   <path class="fil0" d="M2647.73 5557.59l1311.03 0c100.29,0 182.31,82.06 182.31,182.35l0 518.16c0,100.29 -82.02,182.32 -182.31,182.32l-1311.03 0c-100.33,0 -182.35,-82.03 -182.35,-182.32l0 -518.16c0,-100.29 82.02,-182.35 182.35,-182.35z"/>
   <path class="fil0" d="M2647.73 4384.6l1311.03 0c100.29,0 182.31,82.02 182.31,182.35l0 518.16c0,100.3 -82.02,182.32 -182.31,182.32l-1311.03 0c-100.33,0 -182.35,-82.02 -182.35,-182.32l0 -518.16c0,-100.33 82.02,-182.35 182.35,-182.35z"/>
   <path class="fil0" d="M4621.08 5562.27l1311.03 0c100.29,0 182.31,82.02 182.31,182.32l0 518.19c0,100.3 -82.02,182.32 -182.31,182.32l-1311.03 0c-100.29,0 -182.35,-82.02 -182.35,-182.32l0 -518.19c0,-100.3 82.06,-182.32 182.35,-182.32z"/>
  </g>
 </g>
</svg>
