<svg width="108" height="43" viewBox="0 0 108 43" fill="none" xmlns="http://www.w3.org/2000/svg">
<rect width="108" height="42.7417" rx="5" fill="#EB5757"/>
<rect x="8" y="8" width="28" height="26.7417" rx="4" fill="white"/>
<path d="M31.9227 32.7417H12.0772C11.3278 32.7417 10.656 32.3546 10.2802 31.7063C9.91207 31.0711 9.90644 30.3219 10.2647 29.6506L20.1876 11.063C20.5429 10.3974 21.2204 10 22 10C22.7795 10 23.4571 10.3974 23.8124 11.063L33.7352 29.6505C34.0936 30.3218 34.0879 31.0711 33.7197 31.7063C33.344 32.3546 32.6722 32.7417 31.9227 32.7417Z" fill="#FF4C04"/>
<path d="M33.7353 29.6505L23.8125 11.063C23.4571 10.3974 22.7796 10 22 10V32.7417H31.9228C32.6723 32.7417 33.3441 32.3546 33.7198 31.7063C34.0879 31.0711 34.0936 30.3218 33.7353 29.6505Z" fill="#E10000"/>
<path d="M21.9998 29.6945C20.9655 29.6945 20.124 28.8531 20.124 27.8188C20.124 26.7845 20.9655 25.943 21.9998 25.943C23.0341 25.943 23.8756 26.7845 23.8756 27.8188C23.8756 28.8531 23.0341 29.6945 21.9998 29.6945Z" fill="#FFF3F3"/>
<path d="M21.9998 24.0672C20.9655 24.0672 20.124 23.2257 20.124 22.1914V18.1351C20.124 17.1007 20.9655 16.2593 21.9998 16.2593C23.0341 16.2593 23.8756 17.1007 23.8756 18.1351V22.1914C23.8756 23.2257 23.0341 24.0672 21.9998 24.0672Z" fill="#FFF3F3"/>
<path d="M22 16.2593H22V24.0672H22.0001C23.0344 24.0672 23.8758 23.2257 23.8758 22.1914V18.1351C23.8758 17.1008 23.0343 16.2593 22 16.2593Z" fill="#DAD0CB"/>
<path d="M22 25.943H22V29.6945H22C23.0343 29.6945 23.8758 28.8531 23.8758 27.8188C23.8758 26.7845 23.0343 25.943 22 25.943Z" fill="#DAD0CB"/>
<path d="M44.8395 18.1443H47.7848V26.3708H49.2067V18.1443H52.1567V16.9163H44.8395V18.1443ZM52.9264 29.0299H54.3068V25.2675H54.3899C54.6392 25.7199 55.147 26.5093 56.4396 26.5093C58.1569 26.5093 59.4034 25.1336 59.4034 22.8392C59.4034 20.5402 58.1385 19.1876 56.4257 19.1876C55.11 19.1876 54.6345 19.9909 54.3899 20.4294H54.2745V19.2799H52.9264V29.0299ZM54.2791 22.8254C54.2791 21.3435 54.9254 20.3602 56.1303 20.3602C57.3813 20.3602 58.0092 21.4174 58.0092 22.8254C58.0092 24.2473 57.3629 25.3321 56.1303 25.3321C54.9438 25.3321 54.2791 24.3165 54.2791 22.8254ZM64.006 26.514C65.5525 26.514 66.6466 25.7522 66.9605 24.5981L65.6541 24.3627C65.4048 25.0321 64.8046 25.3737 64.0198 25.3737C62.838 25.3737 62.044 24.6074 62.0071 23.2409H67.0483V22.7515C67.0483 20.1894 65.5156 19.1876 63.909 19.1876C61.9332 19.1876 60.6313 20.6926 60.6313 22.8716C60.6313 25.0736 61.9147 26.514 64.006 26.514ZM62.0117 22.2068C62.0671 21.2004 62.7965 20.3279 63.9183 20.3279C64.9893 20.3279 65.691 21.1219 65.6956 22.2068H62.0117ZM68.5798 26.3708H71.9683C73.5194 26.3708 74.4288 25.586 74.4288 24.4596C74.4288 23.4071 73.621 22.7608 72.6746 22.65C73.5471 22.4838 74.1242 22.0037 74.1242 21.1727C74.1242 20.0093 73.1178 19.2799 71.5205 19.2799H68.5798V26.3708ZM69.877 25.2167V23.2455H71.9683C72.6515 23.2455 73.0624 23.6471 73.0624 24.3073C73.0624 24.8705 72.6515 25.2167 71.9683 25.2167H69.877ZM69.877 22.2345V20.4479H71.5205C72.3053 20.4479 72.7808 20.7757 72.7808 21.3204C72.7808 21.8883 72.3099 22.2345 71.5343 22.2345H69.877ZM78.9299 26.514C80.9288 26.514 82.2353 25.0505 82.2353 22.8577C82.2353 20.651 80.9288 19.1876 78.9299 19.1876C76.931 19.1876 75.6245 20.651 75.6245 22.8577C75.6245 25.0505 76.931 26.514 78.9299 26.514ZM78.9345 25.3552C77.6281 25.3552 77.0187 24.215 77.0187 22.8531C77.0187 21.4958 77.6281 20.3417 78.9345 20.3417C80.2318 20.3417 80.8411 21.4958 80.8411 22.8531C80.8411 24.215 80.2318 25.3552 78.9345 25.3552ZM88.3094 19.2799H83.7761V26.3708H85.1379V20.471H88.3094V19.2799ZM91.5017 26.5278C92.6743 26.5278 93.3345 25.9323 93.5976 25.4014H93.653V26.3708H95.001V21.662C95.001 19.5985 93.376 19.1876 92.2496 19.1876C90.9662 19.1876 89.7844 19.7047 89.3228 20.9973L90.62 21.2927C90.8231 20.7895 91.3402 20.3048 92.2681 20.3048C93.159 20.3048 93.6161 20.7711 93.6161 21.5743V21.6066C93.6161 22.1098 93.099 22.1006 91.8249 22.2483C90.4815 22.4053 89.1058 22.7561 89.1058 24.3673C89.1058 25.7615 90.1537 26.5278 91.5017 26.5278ZM91.8018 25.4199C91.0216 25.4199 90.4584 25.069 90.4584 24.3858C90.4584 23.6471 91.1139 23.384 91.9126 23.2778C92.3604 23.2178 93.4222 23.0978 93.6207 22.8993V23.8133C93.6207 24.6535 92.9513 25.4199 91.8018 25.4199ZM98.5799 16.9163H97.0611L97.1812 23.6517H98.4599L98.5799 16.9163ZM97.8182 26.4586C98.3214 26.4586 98.7415 26.0477 98.7415 25.5353C98.7415 25.0321 98.3214 24.6166 97.8182 24.6166C97.3104 24.6166 96.8949 25.0321 96.8949 25.5353C96.8949 26.0477 97.3104 26.4586 97.8182 26.4586Z" fill="white"/>
</svg>
