<svg width="24" height="24" viewBox="0 0 24 24" fill="none" xmlns="http://www.w3.org/2000/svg">
<path d="M12 24C18.6274 24 24 18.6274 24 12C24 5.37258 18.6274 0 12 0C5.37258 0 0 5.37258 0 12C0 18.6274 5.37258 24 12 24Z" fill="#5B5F63"/>
<path d="M12 24C18.6274 24 24 18.6274 24 12C24 5.37258 18.6274 0 12 0C5.37258 0 0 5.37258 0 12C0 18.6274 5.37258 24 12 24Z" fill="#5B5F63"/>
<path d="M12.4073 4.55402C11.8463 4.55402 11.3041 4.62752 10.7783 4.74527C14.1046 5.49002 16.5953 8.44877 16.5953 12C16.5953 15.5513 14.1046 18.51 10.7783 19.2548C11.3041 19.3725 11.8456 19.446 12.4073 19.446C16.5196 19.446 19.8533 16.1123 19.8533 12C19.8533 7.88777 16.5196 4.55402 12.4073 4.55402Z" fill="#FFD83B"/>
<path d="M5.17045 5.17049C5.17045 4.84874 4.6312 4.30949 4.30945 4.30949C4.6312 4.30949 5.17045 3.77024 5.17045 3.44849C5.17045 3.77024 5.7097 4.30949 6.03145 4.30949C5.7097 4.30949 5.17045 4.84874 5.17045 5.17049Z" fill="white"/>
<path d="M19.5224 20.0325C19.5224 19.7107 18.9831 19.1715 18.6614 19.1715C18.9831 19.1715 19.5224 18.6322 19.5224 18.3105C19.5224 18.6322 20.0616 19.1715 20.3834 19.1715C20.0616 19.1715 19.5224 19.7107 19.5224 20.0325Z" fill="white"/>
<path d="M6.61723 21.465C6.61723 21.1433 6.07798 20.604 5.75623 20.604C6.07798 20.604 6.61723 20.0648 6.61723 19.743C6.61723 20.0648 7.15648 20.604 7.47823 20.604C7.15573 20.604 6.61723 21.1425 6.61723 21.465Z" fill="white"/>
<path d="M14.9528 3.85051C14.9528 3.34351 14.1045 2.49526 13.5975 2.49526C14.1045 2.49526 14.9528 1.64701 14.9528 1.14001C14.9528 1.64701 15.801 2.49526 16.308 2.49526C15.801 2.49526 14.9528 3.34351 14.9528 3.85051Z" fill="white"/>
<path d="M20.8507 8.66925C20.8507 8.26125 20.1682 7.5795 19.761 7.5795C20.169 7.5795 20.8507 6.897 20.8507 6.48975C20.8507 6.89775 21.5332 7.5795 21.9405 7.5795C21.5332 7.5795 20.8507 8.262 20.8507 8.66925Z" fill="white"/>
<path d="M3.16495 10.728C3.16495 10.0635 2.0527 8.95053 1.38745 8.95053C2.05195 8.95053 3.16495 7.83828 3.16495 7.17303C3.16495 7.83753 4.2772 8.95053 4.94245 8.95053C4.27795 8.95128 3.16495 10.0635 3.16495 10.728Z" fill="white"/>
</svg>
