<svg width="24" height="24" viewBox="0 0 24 24" fill="none" xmlns="http://www.w3.org/2000/svg">
<path d="M12 0V24C18.6277 24 24 18.6278 24 12C24 5.37225 18.6277 0 12 0Z" fill="#3F4347"/>
<path d="M12 0V24C5.37225 24 0 18.6278 0 12C0 5.37225 5.37225 0 12 0Z" fill="#4E99D2"/>
<path d="M4.84715 12.0007C4.84715 8.05049 8.04965 4.848 11.9999 4.848V1.48349L11.9984 1.48199L10.1594 3.94274L7.43465 2.52599L6.8459 5.541L3.77465 5.44274L4.5524 8.415L1.74515 9.663L3.7334 12.0037L1.74365 14.3445L4.55315 15.5872L3.77615 18.5595L6.84665 18.465L7.4369 21.48L10.1617 20.058L11.9999 22.5187V19.1542C8.04965 19.1542 4.84715 15.9517 4.84715 12.0007Z" fill="#F3C432"/>
<path d="M4.84717 12.0008C4.84717 15.951 8.04967 19.1535 11.9999 19.1535V4.84802C8.04967 4.84802 4.84717 8.05052 4.84717 12.0008Z" fill="#F3C432"/>
<path d="M6.18384 12.0008C6.18384 15.2131 8.78784 17.8171 12.0001 17.8171V6.18457C8.78784 6.18457 6.18384 8.78857 6.18384 12.0008Z" fill="#FFD83B"/>
<path d="M17.8162 12.0008C17.8162 15.2131 15.2123 17.8171 12 17.8171V6.18457C15.2123 6.18457 17.8162 8.78857 17.8162 12.0008Z" fill="white"/>
<path d="M13.4572 15.4215C14.0255 15.4215 14.4862 14.9608 14.4862 14.3925C14.4862 13.8242 14.0255 13.3635 13.4572 13.3635C12.8889 13.3635 12.4282 13.8242 12.4282 14.3925C12.4282 14.9608 12.8889 15.4215 13.4572 15.4215Z" fill="#DDE3E9"/>
<path d="M14.1877 10.2271C14.6429 10.2271 15.0119 9.85802 15.0119 9.4028C15.0119 8.94758 14.6429 8.57855 14.1877 8.57855C13.7324 8.57855 13.3634 8.94758 13.3634 9.4028C13.3634 9.85802 13.7324 10.2271 14.1877 10.2271Z" fill="#DDE3E9"/>
<path d="M16.1482 13.3651C16.497 13.3651 16.7797 13.0823 16.7797 12.7336C16.7797 12.3848 16.497 12.1021 16.1482 12.1021C15.7995 12.1021 15.5167 12.3848 15.5167 12.7336C15.5167 13.0823 15.7995 13.3651 16.1482 13.3651Z" fill="#DDE3E9"/>
</svg>
