<svg width="24" height="24" viewBox="0 0 24 24" fill="none" xmlns="http://www.w3.org/2000/svg">
<path d="M24 12L21.1943 14.1L22.8135 17.2088L19.3725 17.8785L19.482 21.3825L16.0912 20.4975L14.67 23.7015L12 21.4283L9.33 23.7015L7.90875 20.4975L4.51725 21.3818L4.6275 17.8778L1.1865 17.208L2.80575 14.1L0 12L2.80575 9.90003L1.1865 6.79128L4.6275 6.12152L4.518 2.61752L7.90875 3.50252L9.33 0.298523L12 2.57177L14.67 0.298523L16.0912 3.50252L19.4827 2.61827L19.3725 6.12227L22.8135 6.79203L21.1943 9.90003L24 12Z" fill="#F3C432"/>
<path d="M12 19.674C16.2383 19.674 19.674 16.2382 19.674 12C19.674 7.76176 16.2383 4.32599 12 4.32599C7.76182 4.32599 4.32605 7.76176 4.32605 12C4.32605 16.2382 7.76182 19.674 12 19.674Z" fill="#FFD83B"/>
<path d="M8.43975 12.5198C9.68653 12.5198 10.6973 11.509 10.6973 10.2623C10.6973 9.01548 9.68653 8.00476 8.43975 8.00476C7.19297 8.00476 6.18225 9.01548 6.18225 10.2623C6.18225 11.509 7.19297 12.5198 8.43975 12.5198Z" fill="white"/>
<path d="M8.43971 11.6535C9.20808 11.6535 9.83096 11.0306 9.83096 10.2622C9.83096 9.49386 9.20808 8.87097 8.43971 8.87097C7.67135 8.87097 7.04846 9.49386 7.04846 10.2622C7.04846 11.0306 7.67135 11.6535 8.43971 11.6535Z" fill="#3F4347"/>
<path d="M7.48123 9.95099C7.8387 9.95099 8.12848 9.66121 8.12848 9.30374C8.12848 8.94628 7.8387 8.65649 7.48123 8.65649C7.12377 8.65649 6.83398 8.94628 6.83398 9.30374C6.83398 9.66121 7.12377 9.95099 7.48123 9.95099Z" fill="white"/>
<path d="M15.5602 12.5198C16.807 12.5198 17.8177 11.509 17.8177 10.2623C17.8177 9.01548 16.807 8.00476 15.5602 8.00476C14.3135 8.00476 13.3027 9.01548 13.3027 10.2623C13.3027 11.509 14.3135 12.5198 15.5602 12.5198Z" fill="white"/>
<path d="M15.5602 11.6535C16.3286 11.6535 16.9514 11.0306 16.9514 10.2622C16.9514 9.49386 16.3286 8.87097 15.5602 8.87097C14.7918 8.87097 14.1689 9.49386 14.1689 10.2622C14.1689 11.0306 14.7918 11.6535 15.5602 11.6535Z" fill="#3F4347"/>
<path d="M14.6017 9.95099C14.9592 9.95099 15.249 9.66121 15.249 9.30374C15.249 8.94628 14.9592 8.65649 14.6017 8.65649C14.2443 8.65649 13.9545 8.94628 13.9545 9.30374C13.9545 9.66121 14.2443 9.95099 14.6017 9.95099Z" fill="white"/>
<path d="M14.592 14.694C14.085 15.4867 13.1333 16.0717 12.0173 16.0912C10.8278 16.0665 9.89853 15.459 9.40953 14.694H9.00903C9.45228 15.912 10.5465 16.7317 11.9828 16.7707C13.461 16.7302 14.5493 15.9082 14.9903 14.694H14.592Z" fill="#3F4347"/>
<path d="M16.5749 15.447C16.0417 15.6232 15.3029 15.5115 14.6744 14.922C14.1592 14.415 13.9462 13.6095 14.1494 13.0215C14.3564 13.6807 14.6602 14.1607 15.0457 14.5515C15.6839 15.2047 16.0042 15.192 16.5749 15.447Z" fill="#F3C432"/>
<path d="M7.42493 15.447C7.95818 15.6232 8.69693 15.5115 9.32543 14.922C9.84068 14.415 10.0537 13.6095 9.85043 13.0215C9.64343 13.6807 9.33968 14.1607 8.95418 14.5515C8.31593 15.2047 7.99568 15.192 7.42493 15.447Z" fill="#F3C432"/>
</svg>
