<svg width="16" height="16" viewBox="0 0 16 16" fill="none" xmlns="http://www.w3.org/2000/svg">
<g clip-path="url(#clip0)">
<path d="M6.78125 11.4062C6.95374 11.4062 7.09376 11.2662 7.09376 11.0937C7.09376 10.9212 6.95374 10.7812 6.78125 10.7812C6.60877 10.7812 6.46875 10.9212 6.46875 11.0937C6.46875 11.2662 6.60877 11.4062 6.78125 11.4062Z" fill="#DDE2FF"/>
<path d="M0.122803 12.1272L3.87281 15.8772C3.99489 15.9993 4.19264 15.9993 4.31471 15.8772L6.37722 13.8147C6.49929 13.6926 6.49929 13.4949 6.37722 13.3728L6.28566 13.2813H10.7903C11.1859 13.2813 11.5635 13.1329 11.8547 12.8627L15.6458 9.30958C16.0087 8.97254 16.129 8.43714 15.9449 7.97743C15.8118 7.64466 15.5401 7.39002 15.1995 7.27882C14.8588 7.16737 14.4893 7.21253 14.1853 7.40247C14.1834 7.4037 13.3437 7.95472 13.3437 7.95472C13.3379 6.26075 12.3141 4.45435 10.9048 3.64112C10.9853 3.54871 11.0485 3.43934 11.0888 3.3169C11.25 2.8263 10.982 2.29529 10.4906 2.13306C10.4753 2.12793 10.4599 2.12342 10.4445 2.11865L11.2489 0.673585C11.2952 0.590455 11.3012 0.490723 11.2649 0.402833C11.2288 0.31482 11.1546 0.248047 11.0631 0.221558C10.4864 0.0538331 9.88687 -0.03125 9.28128 -0.03125C8.67581 -0.03125 8.0762 0.0538331 7.49941 0.221436C7.40798 0.248047 7.33376 0.314698 7.29751 0.40271C7.26137 0.490723 7.26723 0.590455 7.31362 0.673585L8.11807 2.11865C8.10244 2.12354 8.08682 2.12818 8.07119 2.1333C7.58059 2.29529 7.31264 2.82618 7.4739 3.31714C7.51418 3.43934 7.5779 3.54834 7.65859 3.64087C6.22829 4.46619 5.21877 6.29115 5.21877 7.96876C5.21877 8.01454 5.21986 8.0597 5.22133 8.1045C4.66164 8.25721 4.14125 8.53541 3.70362 8.91859L2.75391 9.74952L2.62721 9.62281C2.50513 9.50074 2.30738 9.50074 2.18531 9.62281L0.122803 11.6853C0.000732327 11.8074 0.000732327 12.0051 0.122803 12.1272ZM8.05728 0.724488C8.45767 0.637574 8.86783 0.593751 9.28128 0.593751C9.69473 0.593751 10.1049 0.637574 10.5054 0.724488L9.80899 1.97534C9.45792 1.92639 9.1044 1.92639 8.75369 1.97534L8.05728 0.724488ZM8.26626 2.72705C8.9075 2.51722 9.6066 2.50135 10.2954 2.72681C10.4594 2.78089 10.5489 2.95813 10.495 3.12171C10.4545 3.24488 10.3446 3.3285 10.2173 3.33594C9.6011 3.14002 8.96109 3.13965 8.34512 3.33533C8.34512 3.33533 8.34512 3.33533 8.345 3.33533C8.21658 3.32727 8.10757 3.24329 8.06753 3.12183C8.0137 2.95801 8.10317 2.78077 8.26626 2.72705ZM8.43911 3.96302C8.98098 3.76783 9.54239 3.76319 10.0856 3.94983C11.5375 4.4491 12.7188 6.25196 12.7188 7.96876C12.7188 8.11427 12.7096 8.25294 12.6916 8.38258L11.1895 9.36805C10.9569 9.07997 10.6045 8.90626 10.2188 8.90626H9.59378V8.54005C9.95755 8.41102 10.2188 8.06361 10.2188 7.65626C10.2188 7.13929 9.79825 6.71876 9.28128 6.71876C9.10904 6.71876 8.96878 6.57862 8.96878 6.40626C8.96878 6.23389 9.10904 6.09376 9.28128 6.09376C9.392 6.09376 9.50882 6.15028 9.61929 6.25709C9.74332 6.37708 9.94119 6.37379 10.0612 6.24989C10.1812 6.12586 10.1779 5.92799 10.0539 5.80799C9.89529 5.65443 9.7366 5.56763 9.59378 5.52027V5.15626C9.59378 4.98365 9.45389 4.84376 9.28128 4.84376C9.10867 4.84376 8.96878 4.98365 8.96878 5.15626V5.52247C8.60513 5.6515 8.34378 5.99891 8.34378 6.40626C8.34378 6.92323 8.76431 7.34376 9.28128 7.34376C9.45364 7.34376 9.59378 7.4839 9.59378 7.65626C9.59378 7.82862 9.45364 7.96876 9.28128 7.96876C9.14773 7.96876 9.00369 7.88478 8.87552 7.73231C8.76443 7.60023 8.56729 7.58314 8.43521 7.69422C8.30313 7.80531 8.28604 8.00245 8.39712 8.13453C8.56411 8.33326 8.76065 8.47169 8.96878 8.54151V8.90626H8.86477C8.71121 8.90626 8.64224 8.80616 8.53408 8.73622C7.8738 8.24134 7.05593 7.96876 6.23098 7.96876C6.10195 7.96876 5.97267 7.97547 5.84401 7.98853C5.84401 7.98194 5.84377 7.97547 5.84377 7.96876C5.84377 6.27601 7.00808 4.47913 8.43911 3.96302ZM4.11525 9.38881C4.70241 8.87464 5.45693 8.59376 6.23098 8.59376C6.92165 8.59376 7.60635 8.82191 8.15884 9.2361C8.23855 9.28273 8.46047 9.53126 8.86465 9.53126H10.2188C10.5745 9.53126 10.8438 9.82045 10.8438 10.1563C10.8438 10.5009 10.5634 10.7813 10.2188 10.7813H8.03127C7.85867 10.7813 7.71877 10.9212 7.71877 11.0938C7.71877 11.2664 7.85867 11.4063 8.03127 11.4063H10.2188C10.908 11.4063 11.4688 10.8455 11.4688 10.1563C11.4688 10.0846 11.4624 10.0139 11.4505 9.94435L14.5192 7.93092C14.6652 7.84071 14.8423 7.81959 15.0054 7.87281C15.1695 7.92652 15.3005 8.0492 15.3645 8.2096C15.4548 8.4347 15.3981 8.68678 15.2194 8.85267L11.4284 12.4057C11.2543 12.5673 11.0277 12.6563 10.7903 12.6563H5.66066L3.19691 10.1924L4.11525 9.38881ZM2.40626 10.2857L5.71437 13.5938L4.09376 15.2144L0.785647 11.9063L2.40626 10.2857Z" fill="#DDE2FF"/>
</g>
<defs>
<clipPath id="clip0">
<rect width="16" height="16" fill="white"/>
</clipPath>
</defs>
</svg>
